<svg width="77" height="77" viewBox="0 0 77 77" fill="none" xmlns="http://www.w3.org/2000/svg">
<path fill-rule="evenodd" clip-rule="evenodd" d="M38.25 76.5C43.2731 76.5 48.2469 75.5106 52.8876 73.5884C57.5283 71.6662 61.745 68.8487 65.2968 65.2968C68.8487 61.745 71.6662 57.5283 73.5884 52.8876C75.5106 48.2469 76.5 43.2731 76.5 38.25C76.5 33.2269 75.5106 28.2531 73.5884 23.6124C71.6662 18.9717 68.8487 14.755 65.2968 11.2032C61.745 7.65132 57.5283 4.83385 52.8876 2.91161C48.2469 0.989365 43.2731 -7.48494e-08 38.25 0C28.1055 1.51165e-07 18.3764 4.0299 11.2032 11.2032C4.0299 18.3764 0 28.1055 0 38.25C0 48.3945 4.0299 58.1236 11.2032 65.2968C18.3764 72.4701 28.1055 76.5 38.25 76.5ZM37.264 53.72L58.514 28.22L51.986 22.78L33.711 44.7057L24.2547 35.2453L18.2453 41.2547L30.9953 54.0047L34.2848 57.2943L37.264 53.72Z" fill="#34C759"/>
</svg>
