<svg width="24" height="24" viewBox="0 0 24 24" fill="none" xmlns="http://www.w3.org/2000/svg">
<path d="M14.8576 4.22248C15.13 4.34386 15.3431 4.56849 15.45 4.84696C15.5569 5.12543 15.5488 5.43496 15.4276 5.70748L9.42756 19.2075C9.36955 19.3455 9.28457 19.4706 9.1776 19.5754C9.07063 19.6801 8.94382 19.7625 8.8046 19.8176C8.66538 19.8727 8.51656 19.8995 8.36686 19.8964C8.21716 19.8933 8.06959 19.8603 7.93281 19.7994C7.79602 19.7385 7.67277 19.6509 7.57028 19.5417C7.46778 19.4326 7.38811 19.304 7.33593 19.1637C7.28375 19.0233 7.26011 18.874 7.2664 18.7244C7.27269 18.5748 7.30878 18.4279 7.37256 18.2925L13.3726 4.79248C13.4939 4.52001 13.7186 4.30691 13.997 4.20002C14.2755 4.09313 14.585 4.10121 14.8576 4.22248ZM6.74706 7.78498C6.96984 7.98301 7.10492 8.26137 7.12264 8.55892C7.14036 8.85648 7.03926 9.1489 6.84156 9.37198L4.50456 12L6.84156 14.628C7.03967 14.8512 7.14102 15.1439 7.1233 15.4418C7.10557 15.7397 6.97024 16.0184 6.74706 16.2165C6.63655 16.3146 6.5078 16.3899 6.36817 16.4383C6.22853 16.4866 6.08074 16.507 5.93324 16.4982C5.63533 16.4805 5.35667 16.3452 5.15856 16.122L2.15856 12.747C1.97573 12.5411 1.87476 12.2753 1.87476 12C1.87476 11.7246 1.97573 11.4589 2.15856 11.253L5.15856 7.87797C5.25678 7.76711 5.37593 7.67673 5.50917 7.61202C5.64241 7.54732 5.78712 7.50956 5.93499 7.50092C6.08286 7.49228 6.23098 7.51292 6.37085 7.56167C6.51072 7.61041 6.63959 7.6863 6.75006 7.78498M17.2561 7.78498C17.3665 7.68676 17.4951 7.61125 17.6347 7.56277C17.7743 7.51429 17.9221 7.49378 18.0696 7.50242C18.2171 7.51106 18.3614 7.54867 18.4944 7.61311C18.6274 7.67754 18.7464 7.76755 18.8446 7.87797L21.8446 11.253C22.0274 11.4589 22.1284 11.7246 22.1284 12C22.1284 12.2753 22.0274 12.5411 21.8446 12.747L18.8446 16.122C18.6464 16.3452 18.3678 16.4805 18.0699 16.4982C17.772 16.5159 17.4792 16.4146 17.2561 16.2165C17.0329 16.0184 16.8975 15.7397 16.8798 15.4418C16.8621 15.1439 16.9634 14.8512 17.1616 14.628L19.4941 12L17.1601 9.37198C16.9623 9.1489 16.8613 8.85648 16.879 8.55892C16.8967 8.26137 17.0333 7.98301 17.2561 7.78498Z" fill="#545454"/>
</svg>
