<svg width="24" height="24" viewBox="0 0 24 24" fill="none" xmlns="http://www.w3.org/2000/svg">
<path d="M20.6284 18.6376L20.625 18.6328L20.6216 18.628C21.2146 18.2067 21.6749 17.6801 22.0026 17.0481C22.3303 16.4161 22.4941 15.7335 22.4941 15V14.9999C22.5019 14.3914 22.3849 13.8102 22.1431 13.2563C21.9012 12.7022 21.5773 12.2223 21.1716 11.8166C20.7659 11.4109 20.29 11.091 19.7438 10.8569C19.1977 10.6229 18.6164 10.5059 18 10.5059H17.9999C17.3757 10.4981 16.7906 10.6151 16.2446 10.8569C15.6983 11.0988 15.2224 11.4226 14.8166 11.8284C14.4109 12.2341 14.091 12.71 13.8569 13.2562C13.6229 13.8023 13.5059 14.3835 13.5059 14.9999C13.5137 15.7334 13.6814 16.4161 14.0091 17.0481C14.3368 17.68 14.7931 18.2066 15.3782 18.6279L15.3694 18.6215L15.3724 18.6276L15.375 18.6328L15.3776 18.6381C14.8625 18.8956 14.3981 19.2117 13.9844 19.5864C13.5707 19.961 13.2156 20.3786 12.919 20.8391C12.6224 21.2996 12.3961 21.799 12.24 22.3376C12.0844 22.8742 12.0064 23.4264 12.0059 23.9941H13.4941C13.4949 23.3861 13.6122 22.8053 13.8462 22.2516C14.0808 21.6963 14.4055 21.2151 14.8201 20.8083C15.2347 20.4016 15.7119 20.0808 16.2516 19.8462C16.7914 19.6115 17.3742 19.4942 17.9999 19.4941C18 19.4941 18 19.4941 18 19.4941V19.5C18.6094 19.4922 19.1914 19.6094 19.7461 19.8516C20.3008 20.0938 20.7812 20.418 21.1875 20.8242C21.5938 21.2305 21.9141 21.707 22.1484 22.2539C22.3828 22.8008 22.5 23.3828 22.5 24L20.6284 18.6376ZM20.6284 18.6376L20.6322 18.643L20.6224 18.6381C21.1375 18.8956 21.6019 19.2117 22.0156 19.5864C22.4293 19.961 22.7805 20.3786 23.0693 20.8391C23.358 21.2995 23.5844 21.7991 23.7483 22.3376C23.9116 22.8743 23.9936 23.4265 23.9941 23.9941H22.5059L20.6284 18.6376ZM21.0059 15.0001V15C21.0059 14.5852 20.9276 14.1977 20.771 13.8375C20.6145 13.4775 20.3992 13.1566 20.1253 12.8748C19.8513 12.593 19.5342 12.3777 19.1741 12.229C18.814 12.0802 18.4227 12.002 18.0001 11.9941H18C17.5852 11.9941 17.1977 12.0724 16.8375 12.229C16.4775 12.3855 16.1566 12.6008 15.8748 12.8747C15.593 13.1487 15.3777 13.4658 15.229 13.8259C15.0802 14.186 15.002 14.5773 14.9941 14.9999V15C14.9941 15.4148 15.0724 15.8023 15.229 16.1625C15.3855 16.5225 15.6008 16.8434 15.8747 17.1252C16.1487 17.407 16.4658 17.6223 16.8259 17.771C17.186 17.9198 17.5773 17.998 17.9999 18.0059H18C18.4148 18.0059 18.8023 17.9276 19.1625 17.771C19.5225 17.6145 19.8434 17.3992 20.1252 17.1253C20.407 16.8513 20.6223 16.5342 20.771 16.1741C20.9198 15.814 20.998 15.4227 21.0059 15.0001ZM1.49414 21H1.5V21.0059H10.7136C10.6058 21.2456 10.5171 21.4893 10.4475 21.7367C10.3776 21.9853 10.3192 22.2378 10.2725 22.4941H0.00585938V3.00586H3V3H3.00586V1.50586H7.5C8.18689 1.50586 8.84642 1.61123 9.47862 1.82196C10.1108 2.03269 10.7 2.34878 11.2464 2.77026L11.2355 2.7844L11.2536 2.77024C11.7922 2.34877 12.3775 2.03268 13.0097 1.82196C13.6419 1.61123 14.3053 1.50586 15 1.50586H19.4941V3H19.5V3.00586H22.4941V10.486C22.0441 10.0455 21.548 9.67792 21.0059 9.38323V4.5H21V4.49414H19.5V4.5H19.4941V8.81649C19.2463 8.74718 18.9985 8.69704 18.7507 8.66606C18.5024 8.63503 18.2542 8.61939 18.0059 8.61914V3H18V2.99414H15C14.4524 2.99414 13.9205 3.08801 13.4042 3.27574C12.8879 3.46349 12.4186 3.74121 11.9962 4.10886L11.9941 4.10655V4.11328V18.9353C11.7445 19.2241 11.5183 19.5245 11.3154 19.8367C11.1136 20.1471 10.9349 20.4807 10.7794 20.8373C10.3659 20.41 9.86722 20.0796 9.28343 19.8461C8.69683 19.6115 8.10234 19.4941 7.5 19.4941H3.00586V4.5H3V4.49414H1.5V4.5H1.49414V21ZM10.5 18.7852L10.5029 18.78L10.5059 18.7747V4.11328H10.509L10.5038 4.10882C10.0814 3.749 9.61204 3.4752 9.09575 3.28746C8.57951 3.09974 8.04762 3.00196 7.50008 2.99414H7.5H4.5V3H4.49414V18H4.5V18.0059H7.5C8.02294 18.0059 8.53806 18.0722 9.04539 18.2049C9.55272 18.3376 10.0366 18.5327 10.4971 18.7903L10.5 18.7852Z" fill="#545454" stroke="#545454" stroke-width="0.0117188"/>
</svg>
