<svg width="29" height="22" viewBox="0 0 29 22" fill="none" xmlns="http://www.w3.org/2000/svg">
<path d="M22.09 13.41L24.5 16H19.5V18H24.5L22.09 20.59L23.5 22L28.5 17L23.5 12L22.09 13.41ZM11.5 0C9.8705 0.000600085 8.27173 0.443589 6.87429 1.2817C5.47685 2.11981 4.33317 3.32159 3.56528 4.75882C2.79739 6.19605 2.43411 7.81479 2.51419 9.44232C2.59427 11.0698 3.11472 12.6451 4.02 14L5.68 12.89C4.81276 11.5926 4.40394 10.0425 4.5185 8.48615C4.63306 6.92977 5.26442 5.45631 6.31228 4.29983C7.36014 3.14336 8.76441 2.37021 10.302 2.10321C11.8396 1.83621 13.4223 2.09067 14.7987 2.82617C16.1751 3.56167 17.2662 4.73603 17.8988 6.16267C18.5314 7.58932 18.669 9.18643 18.29 10.7003C17.9109 12.2141 17.0368 13.5579 15.8066 14.5181C14.5764 15.4783 13.0606 15.9999 11.5 16H0.5V18H11.5C13.8869 18 16.1761 17.0518 17.864 15.364C19.5518 13.6761 20.5 11.3869 20.5 9C20.5 6.61305 19.5518 4.32387 17.864 2.63604C16.1761 0.948211 13.8869 0 11.5 0Z" fill="#695A29"/>
</svg>
