<svg width="327" height="50" viewBox="0 0 327 50" fill="none" xmlns="http://www.w3.org/2000/svg">
<path d="M23.75 34.375H24.375C25.5438 34.375 26.1275 34.375 26.5625 34.6263C26.8475 34.7908 27.0842 35.0275 27.2487 35.3125C27.5 35.7475 27.5 36.3312 27.5 37.5C27.5 38.6688 27.5 39.2525 27.2487 39.6875C27.0842 39.9725 26.8475 40.2092 26.5625 40.3737C26.1275 40.625 25.5438 40.625 24.375 40.625H23.75M6.25 34.375H5.625C4.45625 34.375 3.8725 34.375 3.4375 34.6263C3.15249 34.7908 2.91581 35.0275 2.75125 35.3125C2.5 35.7475 2.5 36.3312 2.5 37.5C2.5 38.6688 2.5 39.2525 2.75125 39.6875C2.91581 39.9725 3.15249 40.2092 3.4375 40.3737C3.8725 40.625 4.45625 40.625 5.625 40.625H6.25M15 26.25C15.4973 26.25 15.9742 26.0525 16.3258 25.7008C16.6775 25.3492 16.875 24.8723 16.875 24.375C16.875 23.8777 16.6775 23.4008 16.3258 23.0492C15.9742 22.6975 15.4973 22.5 15 22.5C14.5027 22.5 14.0258 22.6975 13.6742 23.0492C13.3225 23.4008 13.125 23.8777 13.125 24.375C13.125 24.8723 13.3225 25.3492 13.6742 25.7008C14.0258 26.0525 14.5027 26.25 15 26.25ZM15 26.25V30M11.25 35V36.25M18.75 35V36.25M13.75 30H16.25C19.785 30 21.5538 30 22.6513 31.0987C23.75 32.1962 23.75 33.965 23.75 37.5C23.75 41.035 23.75 42.8038 22.6513 43.9013C21.5538 45 19.785 45 16.25 45H15C15 45 14.375 47.5 10 47.5C10 47.5 11.25 46.2387 11.25 44.9787C9.30875 44.92 8.15 44.7038 7.34875 43.9013C6.25 42.8038 6.25 41.035 6.25 37.5C6.25 33.965 6.25 32.1962 7.34875 31.0987C8.44625 30 10.215 30 13.75 30Z" stroke="black" stroke-width="1.875" stroke-linecap="round" stroke-linejoin="round"/>
<path d="M12.5 40.625C12.5 40.625 13.3338 41.25 15 41.25C16.6662 41.25 17.5 40.625 17.5 40.625" stroke="black" stroke-width="1.875" stroke-linecap="round" stroke-linejoin="round"/>
<path d="M39.2848 45.6818V32.1818H41.1513V33.7734H41.3111C41.4219 33.5689 41.5817 33.3324 41.7905 33.0639C41.9993 32.7955 42.2891 32.5611 42.6598 32.3608C43.0305 32.1562 43.5206 32.054 44.13 32.054C44.9226 32.054 45.63 32.2543 46.2521 32.6548C46.8743 33.0554 47.3622 33.6328 47.7159 34.3871C48.0739 35.1413 48.2528 36.049 48.2528 37.1101C48.2528 38.1712 48.076 39.081 47.7223 39.8395C47.3686 40.5937 46.8828 41.1754 46.2649 41.5845C45.647 41.9893 44.9418 42.1918 44.1491 42.1918C43.5526 42.1918 43.0646 42.0916 42.6854 41.8913C42.3104 41.6911 42.0163 41.4567 41.8033 41.1882C41.5902 40.9197 41.4261 40.6811 41.3111 40.4723H41.196V45.6818H39.2848ZM41.1577 37.0909C41.1577 37.7812 41.2578 38.3864 41.4581 38.9062C41.6584 39.4261 41.9482 39.8331 42.3274 40.1271C42.7067 40.4169 43.1712 40.5618 43.7209 40.5618C44.2919 40.5618 44.7692 40.4105 45.1527 40.108C45.5362 39.8011 45.826 39.3857 46.022 38.8615C46.2223 38.3374 46.3224 37.7472 46.3224 37.0909C46.3224 36.4432 46.2244 35.8615 46.0284 35.3459C45.8366 34.8303 45.5469 34.4233 45.1591 34.125C44.7756 33.8267 44.2962 33.6776 43.7209 33.6776C43.1669 33.6776 42.6982 33.8203 42.3146 34.1058C41.9354 34.3913 41.6477 34.7898 41.4517 35.3011C41.2557 35.8125 41.1577 36.4091 41.1577 37.0909ZM52.3054 28.9091V42H50.3942V28.9091H52.3054ZM61.0961 37.9283V32.1818H63.0137V42H61.1344V40.2997H61.0321C60.8063 40.8239 60.4441 41.2607 59.9455 41.6101C59.4512 41.9553 58.8354 42.1278 58.0982 42.1278C57.4675 42.1278 56.9093 41.9893 56.4235 41.7124C55.9419 41.4311 55.5627 41.0156 55.2857 40.4659C55.013 39.9162 54.8766 39.2365 54.8766 38.4268V32.1818H56.7878V38.1967C56.7878 38.8658 56.9732 39.3984 57.3439 39.7947C57.7147 40.1911 58.1962 40.3892 58.7885 40.3892C59.1465 40.3892 59.5023 40.2997 59.856 40.1207C60.214 39.9418 60.5101 39.6712 60.7445 39.3089C60.9831 38.9467 61.1003 38.4865 61.0961 37.9283ZM72.9389 34.5788L71.2067 34.8857C71.1342 34.6641 71.0192 34.4531 70.8615 34.2528C70.7081 34.0526 70.4993 33.8885 70.2351 33.7607C69.9709 33.6328 69.6406 33.5689 69.2443 33.5689C68.7031 33.5689 68.2514 33.6903 67.8892 33.9332C67.527 34.1719 67.3459 34.4808 67.3459 34.8601C67.3459 35.1882 67.4673 35.4524 67.7102 35.6527C67.9531 35.853 68.3452 36.017 68.8864 36.1449L70.446 36.5028C71.3494 36.7116 72.0227 37.0334 72.4659 37.468C72.9091 37.9027 73.1307 38.4673 73.1307 39.1619C73.1307 39.75 72.9602 40.2741 72.6193 40.7344C72.2827 41.1903 71.8118 41.5483 71.2067 41.8082C70.6058 42.0682 69.9091 42.1982 69.1165 42.1982C68.017 42.1982 67.12 41.9638 66.4254 41.495C65.7308 41.022 65.3047 40.3509 65.147 39.4815L66.9943 39.2003C67.1094 39.6818 67.3459 40.0462 67.7038 40.2933C68.0618 40.5362 68.5284 40.6577 69.1037 40.6577C69.7301 40.6577 70.2308 40.5277 70.6058 40.2678C70.9808 40.0036 71.1683 39.6818 71.1683 39.3026C71.1683 38.9957 71.0533 38.7379 70.8232 38.5291C70.5973 38.3203 70.25 38.1626 69.7812 38.0561L68.1193 37.6918C67.2031 37.483 66.5256 37.1506 66.0866 36.6946C65.652 36.2386 65.4347 35.6612 65.4347 34.9624C65.4347 34.3828 65.5966 33.8757 65.9205 33.4411C66.2443 33.0064 66.6918 32.6676 67.2628 32.4247C67.8338 32.1776 68.4879 32.054 69.2251 32.054C70.2862 32.054 71.1214 32.2841 71.7308 32.7443C72.3402 33.2003 72.7429 33.8118 72.9389 34.5788ZM81.255 42H79.1584L83.8693 28.9091H86.1513L90.8622 42H88.7656L85.0646 31.2869H84.9624L81.255 42ZM81.6065 36.8736H88.4077V38.5355H81.6065V36.8736ZM94.7278 28.9091V42H92.7527V28.9091H94.7278ZM103.236 35.6399V37.2955H97.4316V35.6399H103.236ZM108.64 42.2173C108.018 42.2173 107.455 42.1023 106.953 41.8722C106.45 41.6378 106.051 41.299 105.757 40.8558C105.468 40.4126 105.323 39.8693 105.323 39.2259C105.323 38.6719 105.429 38.2159 105.642 37.858C105.855 37.5 106.143 37.2166 106.505 37.0078C106.867 36.799 107.272 36.6413 107.72 36.5348C108.167 36.4283 108.623 36.3473 109.088 36.2919C109.676 36.2237 110.153 36.1683 110.519 36.1257C110.886 36.0788 111.152 36.0043 111.318 35.902C111.485 35.7997 111.568 35.6335 111.568 35.4034V35.3587C111.568 34.8004 111.41 34.3679 111.095 34.0611C110.784 33.7543 110.319 33.6009 109.701 33.6009C109.058 33.6009 108.551 33.7436 108.18 34.0291C107.813 34.3104 107.56 34.6236 107.419 34.9688L105.623 34.5597C105.836 33.9631 106.147 33.4815 106.556 33.1151C106.97 32.7443 107.445 32.4759 107.982 32.3097C108.519 32.1392 109.083 32.054 109.676 32.054C110.068 32.054 110.483 32.1009 110.922 32.1946C111.365 32.2841 111.779 32.4503 112.162 32.6932C112.55 32.9361 112.867 33.2834 113.115 33.7351C113.362 34.1825 113.485 34.7642 113.485 35.4801V42H111.619V40.6577H111.542C111.419 40.9048 111.233 41.1477 110.986 41.3864C110.739 41.625 110.421 41.8232 110.034 41.9808C109.646 42.1385 109.181 42.2173 108.64 42.2173ZM109.056 40.6832C109.584 40.6832 110.036 40.5788 110.411 40.37C110.79 40.1612 111.078 39.8885 111.274 39.5518C111.474 39.2109 111.574 38.8466 111.574 38.4588V37.1932C111.506 37.2614 111.374 37.3253 111.178 37.3849C110.986 37.4403 110.767 37.4893 110.519 37.532C110.272 37.5703 110.031 37.6065 109.797 37.6406C109.563 37.6705 109.367 37.696 109.209 37.7173C108.838 37.7642 108.499 37.843 108.193 37.9538C107.89 38.0646 107.647 38.2244 107.464 38.4332C107.285 38.6378 107.195 38.9105 107.195 39.2514C107.195 39.7244 107.37 40.0824 107.72 40.3253C108.069 40.5639 108.514 40.6832 109.056 40.6832ZM123.388 34.5788L121.656 34.8857C121.583 34.6641 121.468 34.4531 121.311 34.2528C121.157 34.0526 120.949 33.8885 120.684 33.7607C120.42 33.6328 120.09 33.5689 119.694 33.5689C119.152 33.5689 118.701 33.6903 118.338 33.9332C117.976 34.1719 117.795 34.4808 117.795 34.8601C117.795 35.1882 117.917 35.4524 118.159 35.6527C118.402 35.853 118.794 36.017 119.336 36.1449L120.895 36.5028C121.799 36.7116 122.472 37.0334 122.915 37.468C123.358 37.9027 123.58 38.4673 123.58 39.1619C123.58 39.75 123.409 40.2741 123.069 40.7344C122.732 41.1903 122.261 41.5483 121.656 41.8082C121.055 42.0682 120.358 42.1982 119.566 42.1982C118.466 42.1982 117.569 41.9638 116.875 41.495C116.18 41.022 115.754 40.3509 115.596 39.4815L117.444 39.2003C117.559 39.6818 117.795 40.0462 118.153 40.2933C118.511 40.5362 118.978 40.6577 119.553 40.6577C120.179 40.6577 120.68 40.5277 121.055 40.2678C121.43 40.0036 121.618 39.6818 121.618 39.3026C121.618 38.9957 121.502 38.7379 121.272 38.5291C121.047 38.3203 120.699 38.1626 120.23 38.0561L118.569 37.6918C117.652 37.483 116.975 37.1506 116.536 36.6946C116.101 36.2386 115.884 35.6612 115.884 34.9624C115.884 34.3828 116.046 33.8757 116.37 33.4411C116.694 33.0064 117.141 32.6676 117.712 32.4247C118.283 32.1776 118.937 32.054 119.674 32.054C120.735 32.054 121.571 32.2841 122.18 32.7443C122.789 33.2003 123.192 33.8118 123.388 34.5788ZM133.039 34.5788L131.306 34.8857C131.234 34.6641 131.119 34.4531 130.961 34.2528C130.808 34.0526 130.599 33.8885 130.335 33.7607C130.07 33.6328 129.74 33.5689 129.344 33.5689C128.803 33.5689 128.351 33.6903 127.989 33.9332C127.627 34.1719 127.445 34.4808 127.445 34.8601C127.445 35.1882 127.567 35.4524 127.81 35.6527C128.053 35.853 128.445 36.017 128.986 36.1449L130.546 36.5028C131.449 36.7116 132.122 37.0334 132.566 37.468C133.009 37.9027 133.23 38.4673 133.23 39.1619C133.23 39.75 133.06 40.2741 132.719 40.7344C132.382 41.1903 131.911 41.5483 131.306 41.8082C130.705 42.0682 130.009 42.1982 129.216 42.1982C128.117 42.1982 127.22 41.9638 126.525 41.495C125.83 41.022 125.404 40.3509 125.247 39.4815L127.094 39.2003C127.209 39.6818 127.445 40.0462 127.803 40.2933C128.161 40.5362 128.628 40.6577 129.203 40.6577C129.83 40.6577 130.33 40.5277 130.705 40.2678C131.08 40.0036 131.268 39.6818 131.268 39.3026C131.268 38.9957 131.153 38.7379 130.923 38.5291C130.697 38.3203 130.35 38.1626 129.881 38.0561L128.219 37.6918C127.303 37.483 126.625 37.1506 126.186 36.6946C125.752 36.2386 125.534 35.6612 125.534 34.9624C125.534 34.3828 125.696 33.8757 126.02 33.4411C126.344 33.0064 126.791 32.6676 127.362 32.4247C127.933 32.1776 128.588 32.054 129.325 32.054C130.386 32.054 131.221 32.2841 131.83 32.7443C132.44 33.2003 132.843 33.8118 133.039 34.5788ZM135.332 42V32.1818H137.243V42H135.332ZM136.297 30.6669C135.964 30.6669 135.679 30.5561 135.44 30.3345C135.206 30.1087 135.089 29.8402 135.089 29.5291C135.089 29.2138 135.206 28.9453 135.44 28.7237C135.679 28.4979 135.964 28.3849 136.297 28.3849C136.629 28.3849 136.913 28.4979 137.147 28.7237C137.386 28.9453 137.505 29.2138 137.505 29.5291C137.505 29.8402 137.386 30.1087 137.147 30.3345C136.913 30.5561 136.629 30.6669 136.297 30.6669ZM147.171 34.5788L145.439 34.8857C145.367 34.6641 145.252 34.4531 145.094 34.2528C144.941 34.0526 144.732 33.8885 144.468 33.7607C144.203 33.6328 143.873 33.5689 143.477 33.5689C142.936 33.5689 142.484 33.6903 142.122 33.9332C141.759 34.1719 141.578 34.4808 141.578 34.8601C141.578 35.1882 141.7 35.4524 141.943 35.6527C142.186 35.853 142.578 36.017 143.119 36.1449L144.678 36.5028C145.582 36.7116 146.255 37.0334 146.698 37.468C147.142 37.9027 147.363 38.4673 147.363 39.1619C147.363 39.75 147.193 40.2741 146.852 40.7344C146.515 41.1903 146.044 41.5483 145.439 41.8082C144.838 42.0682 144.142 42.1982 143.349 42.1982C142.249 42.1982 141.352 41.9638 140.658 41.495C139.963 41.022 139.537 40.3509 139.379 39.4815L141.227 39.2003C141.342 39.6818 141.578 40.0462 141.936 40.2933C142.294 40.5362 142.761 40.6577 143.336 40.6577C143.963 40.6577 144.463 40.5277 144.838 40.2678C145.213 40.0036 145.401 39.6818 145.401 39.3026C145.401 38.9957 145.286 38.7379 145.056 38.5291C144.83 38.3203 144.482 38.1626 144.014 38.0561L142.352 37.6918C141.436 37.483 140.758 37.1506 140.319 36.6946C139.884 36.2386 139.667 35.6612 139.667 34.9624C139.667 34.3828 139.829 33.8757 140.153 33.4411C140.477 33.0064 140.924 32.6676 141.495 32.4247C142.066 32.1776 142.72 32.054 143.458 32.054C144.519 32.054 145.354 32.2841 145.963 32.7443C146.573 33.2003 146.975 33.8118 147.171 34.5788ZM154.048 32.1818V33.7159H148.685V32.1818H154.048ZM150.123 29.8295H152.034V39.1172C152.034 39.4879 152.089 39.767 152.2 39.9545C152.311 40.1378 152.454 40.2635 152.629 40.3317C152.808 40.3956 153.001 40.4276 153.21 40.4276C153.364 40.4276 153.498 40.4169 153.613 40.3956C153.728 40.3743 153.817 40.3572 153.881 40.3445L154.227 41.9233C154.116 41.9659 153.958 42.0085 153.754 42.0511C153.549 42.098 153.293 42.1236 152.987 42.1278C152.484 42.1364 152.015 42.0469 151.58 41.8594C151.146 41.6719 150.794 41.3821 150.526 40.9901C150.257 40.598 150.123 40.1058 150.123 39.5135V29.8295ZM160.288 42.1982C159.32 42.1982 158.487 41.9915 157.789 41.5781C157.094 41.1605 156.557 40.5746 156.178 39.8203C155.803 39.0618 155.615 38.1733 155.615 37.1548C155.615 36.1491 155.803 35.2628 156.178 34.4957C156.557 33.7287 157.085 33.13 157.763 32.6996C158.445 32.2692 159.242 32.054 160.154 32.054C160.708 32.054 161.244 32.1456 161.764 32.3288C162.284 32.5121 162.751 32.7997 163.164 33.1918C163.578 33.5838 163.904 34.093 164.142 34.7195C164.381 35.3416 164.5 36.098 164.5 36.9886V37.6662H156.695V36.2344H162.627C162.627 35.7315 162.525 35.2862 162.32 34.8984C162.116 34.5064 161.828 34.1974 161.458 33.9716C161.091 33.7457 160.661 33.6328 160.166 33.6328C159.629 33.6328 159.161 33.7649 158.76 34.0291C158.364 34.2891 158.057 34.63 157.84 35.0518C157.627 35.4695 157.52 35.9233 157.52 36.4134V37.532C157.52 38.1882 157.635 38.7464 157.865 39.2067C158.1 39.6669 158.426 40.0185 158.843 40.2614C159.261 40.5 159.749 40.6193 160.307 40.6193C160.669 40.6193 160.999 40.5682 161.298 40.4659C161.596 40.3594 161.854 40.2017 162.071 39.9929C162.289 39.7841 162.455 39.5263 162.57 39.2195L164.379 39.5455C164.234 40.0781 163.974 40.5447 163.599 40.9453C163.228 41.3416 162.762 41.6506 162.199 41.8722C161.641 42.0895 161.004 42.1982 160.288 42.1982ZM170.296 42.1918C169.504 42.1918 168.796 41.9893 168.174 41.5845C167.556 41.1754 167.07 40.5937 166.717 39.8395C166.367 39.081 166.192 38.1712 166.192 37.1101C166.192 36.049 166.369 35.1413 166.723 34.3871C167.081 33.6328 167.571 33.0554 168.193 32.6548C168.815 32.2543 169.521 32.054 170.309 32.054C170.918 32.054 171.408 32.1562 171.779 32.3608C172.154 32.5611 172.444 32.7955 172.648 33.0639C172.857 33.3324 173.019 33.5689 173.134 33.7734H173.249V28.9091H175.161V42H173.294V40.4723H173.134C173.019 40.6811 172.853 40.9197 172.636 41.1882C172.423 41.4567 172.129 41.6911 171.754 41.8913C171.379 42.0916 170.893 42.1918 170.296 42.1918ZM170.718 40.5618C171.268 40.5618 171.732 40.4169 172.112 40.1271C172.495 39.8331 172.785 39.4261 172.981 38.9062C173.181 38.3864 173.281 37.7812 173.281 37.0909C173.281 36.4091 173.183 35.8125 172.987 35.3011C172.791 34.7898 172.504 34.3913 172.124 34.1058C171.745 33.8203 171.276 33.6776 170.718 33.6776C170.143 33.6776 169.663 33.8267 169.28 34.125C168.896 34.4233 168.607 34.8303 168.411 35.3459C168.219 35.8615 168.123 36.4432 168.123 37.0909C168.123 37.7472 168.221 38.3374 168.417 38.8615C168.613 39.3857 168.903 39.8011 169.286 40.108C169.674 40.4105 170.151 40.5618 170.718 40.5618ZM184.563 28.9091V42H182.652V28.9091H184.563ZM191.366 42.1982C190.399 42.1982 189.566 41.9915 188.867 41.5781C188.172 41.1605 187.635 40.5746 187.256 39.8203C186.881 39.0618 186.693 38.1733 186.693 37.1548C186.693 36.1491 186.881 35.2628 187.256 34.4957C187.635 33.7287 188.164 33.13 188.841 32.6996C189.523 32.2692 190.32 32.054 191.232 32.054C191.786 32.054 192.323 32.1456 192.843 32.3288C193.362 32.5121 193.829 32.7997 194.242 33.1918C194.656 33.5838 194.982 34.093 195.22 34.7195C195.459 35.3416 195.578 36.098 195.578 36.9886V37.6662H187.774V36.2344H193.705C193.705 35.7315 193.603 35.2862 193.399 34.8984C193.194 34.5064 192.906 34.1974 192.536 33.9716C192.169 33.7457 191.739 33.6328 191.244 33.6328C190.708 33.6328 190.239 33.7649 189.838 34.0291C189.442 34.2891 189.135 34.63 188.918 35.0518C188.705 35.4695 188.598 35.9233 188.598 36.4134V37.532C188.598 38.1882 188.713 38.7464 188.943 39.2067C189.178 39.6669 189.504 40.0185 189.921 40.2614C190.339 40.5 190.827 40.6193 191.385 40.6193C191.747 40.6193 192.078 40.5682 192.376 40.4659C192.674 40.3594 192.932 40.2017 193.149 39.9929C193.367 39.7841 193.533 39.5263 193.648 39.2195L195.457 39.5455C195.312 40.0781 195.052 40.5447 194.677 40.9453C194.306 41.3416 193.84 41.6506 193.277 41.8722C192.719 42.0895 192.082 42.1982 191.366 42.1982ZM200.556 42.2173C199.934 42.2173 199.371 42.1023 198.869 41.8722C198.366 41.6378 197.967 41.299 197.673 40.8558C197.384 40.4126 197.239 39.8693 197.239 39.2259C197.239 38.6719 197.345 38.2159 197.558 37.858C197.771 37.5 198.059 37.2166 198.421 37.0078C198.783 36.799 199.188 36.6413 199.636 36.5348C200.083 36.4283 200.539 36.3473 201.004 36.2919C201.592 36.2237 202.069 36.1683 202.435 36.1257C202.802 36.0788 203.068 36.0043 203.234 35.902C203.401 35.7997 203.484 35.6335 203.484 35.4034V35.3587C203.484 34.8004 203.326 34.3679 203.011 34.0611C202.7 33.7543 202.235 33.6009 201.617 33.6009C200.974 33.6009 200.467 33.7436 200.096 34.0291C199.729 34.3104 199.476 34.6236 199.335 34.9688L197.539 34.5597C197.752 33.9631 198.063 33.4815 198.472 33.1151C198.886 32.7443 199.361 32.4759 199.898 32.3097C200.435 32.1392 200.999 32.054 201.592 32.054C201.984 32.054 202.399 32.1009 202.838 32.1946C203.281 32.2841 203.695 32.4503 204.078 32.6932C204.466 32.9361 204.783 33.2834 205.031 33.7351C205.278 34.1825 205.401 34.7642 205.401 35.4801V42H203.535V40.6577H203.458C203.335 40.9048 203.149 41.1477 202.902 41.3864C202.655 41.625 202.337 41.8232 201.95 41.9808C201.562 42.1385 201.097 42.2173 200.556 42.2173ZM200.972 40.6832C201.5 40.6832 201.952 40.5788 202.327 40.37C202.706 40.1612 202.994 39.8885 203.19 39.5518C203.39 39.2109 203.49 38.8466 203.49 38.4588V37.1932C203.422 37.2614 203.29 37.3253 203.094 37.3849C202.902 37.4403 202.683 37.4893 202.435 37.532C202.188 37.5703 201.947 37.6065 201.713 37.6406C201.479 37.6705 201.283 37.696 201.125 37.7173C200.754 37.7642 200.415 37.843 200.109 37.9538C199.806 38.0646 199.563 38.2244 199.38 38.4332C199.201 38.6378 199.112 38.9105 199.112 39.2514C199.112 39.7244 199.286 40.0824 199.636 40.3253C199.985 40.5639 200.43 40.6832 200.972 40.6832ZM207.947 42V32.1818H209.794V33.7415H209.896C210.075 33.2131 210.391 32.7976 210.843 32.495C211.298 32.1882 211.814 32.0348 212.389 32.0348C212.509 32.0348 212.649 32.0391 212.811 32.0476C212.977 32.0561 213.107 32.0668 213.201 32.0795V33.9077C213.124 33.8864 212.988 33.8629 212.792 33.8374C212.596 33.8075 212.4 33.7926 212.204 33.7926C211.752 33.7926 211.35 33.8885 210.996 34.0803C210.646 34.2678 210.369 34.5298 210.165 34.8665C209.96 35.1989 209.858 35.5781 209.858 36.0043V42H207.947ZM216.766 36.1705V42H214.855V32.1818H216.69V33.7798H216.811C217.037 33.2599 217.391 32.8423 217.872 32.527C218.358 32.2116 218.969 32.054 219.707 32.054C220.376 32.054 220.962 32.1946 221.464 32.4759C221.967 32.7528 222.357 33.1662 222.634 33.7159C222.911 34.2656 223.05 34.9453 223.05 35.755V42H221.138V35.9851C221.138 35.2734 220.953 34.7173 220.582 34.3168C220.212 33.9119 219.702 33.7095 219.055 33.7095C218.612 33.7095 218.217 33.8054 217.872 33.9972C217.531 34.1889 217.261 34.4702 217.06 34.8409C216.864 35.2074 216.766 35.6506 216.766 36.1705ZM225.613 42V32.1818H227.524V42H225.613ZM226.578 30.6669C226.246 30.6669 225.96 30.5561 225.722 30.3345C225.487 30.1087 225.37 29.8402 225.37 29.5291C225.37 29.2138 225.487 28.9453 225.722 28.7237C225.96 28.4979 226.246 28.3849 226.578 28.3849C226.911 28.3849 227.194 28.4979 227.428 28.7237C227.667 28.9453 227.786 29.2138 227.786 29.5291C227.786 29.8402 227.667 30.1087 227.428 30.3345C227.194 30.5561 226.911 30.6669 226.578 30.6669ZM232.007 36.1705V42H230.095V32.1818H231.93V33.7798H232.051C232.277 33.2599 232.631 32.8423 233.112 32.527C233.598 32.2116 234.21 32.054 234.947 32.054C235.616 32.054 236.202 32.1946 236.705 32.4759C237.208 32.7528 237.597 33.1662 237.874 33.7159C238.151 34.2656 238.29 34.9453 238.29 35.755V42H236.379V35.9851C236.379 35.2734 236.193 34.7173 235.823 34.3168C235.452 33.9119 234.943 33.7095 234.295 33.7095C233.852 33.7095 233.458 33.8054 233.112 33.9972C232.771 34.1889 232.501 34.4702 232.301 34.8409C232.105 35.2074 232.007 35.6506 232.007 36.1705ZM244.97 45.8864C244.19 45.8864 243.519 45.7841 242.956 45.5795C242.398 45.375 241.942 45.1044 241.588 44.7678C241.235 44.4311 240.97 44.0625 240.796 43.6619L242.438 42.9844C242.553 43.1719 242.707 43.37 242.899 43.5788C243.095 43.7919 243.359 43.973 243.691 44.1222C244.028 44.2713 244.46 44.3459 244.989 44.3459C245.713 44.3459 246.312 44.169 246.785 43.8153C247.258 43.4659 247.494 42.9077 247.494 42.1406V40.2102H247.373C247.258 40.419 247.092 40.6513 246.874 40.907C246.661 41.1626 246.367 41.3842 245.992 41.5717C245.617 41.7592 245.129 41.853 244.529 41.853C243.753 41.853 243.054 41.6719 242.432 41.3097C241.814 40.9432 241.324 40.4041 240.962 39.6925C240.604 38.9766 240.425 38.0966 240.425 37.0526C240.425 36.0085 240.602 35.1136 240.955 34.3679C241.313 33.6222 241.803 33.0511 242.426 32.6548C243.048 32.2543 243.753 32.054 244.541 32.054C245.151 32.054 245.643 32.1562 246.018 32.3608C246.393 32.5611 246.685 32.7955 246.894 33.0639C247.107 33.3324 247.271 33.5689 247.386 33.7734H247.526V32.1818H249.399V42.2173C249.399 43.0611 249.203 43.7536 248.811 44.2947C248.419 44.8359 247.889 45.2365 247.22 45.4964C246.555 45.7564 245.805 45.8864 244.97 45.8864ZM244.95 40.2678C245.5 40.2678 245.965 40.1399 246.344 39.8842C246.727 39.6243 247.017 39.2536 247.213 38.772C247.414 38.2862 247.514 37.7045 247.514 37.027C247.514 36.3665 247.416 35.7848 247.22 35.282C247.024 34.7791 246.736 34.3871 246.357 34.1058C245.977 33.8203 245.509 33.6776 244.95 33.6776C244.375 33.6776 243.896 33.8267 243.512 34.125C243.129 34.419 242.839 34.8196 242.643 35.3267C242.451 35.8338 242.355 36.4006 242.355 37.027C242.355 37.6705 242.453 38.2351 242.649 38.7209C242.845 39.2067 243.135 39.5859 243.519 39.8587C243.906 40.1314 244.384 40.2678 244.95 40.2678Z" fill="#2E2E2E"/>
<path d="M316 0L316.973 11.506L326.451 4.91061L316 0ZM272.052 43.4986C283.777 42.8856 299.588 40.372 310.817 34.7949C316.43 32.0078 321.03 28.3906 323.322 23.7334C325.646 19.0111 325.506 13.41 322.021 6.9141L320.259 7.85947C323.507 13.915 323.508 18.8263 321.528 22.8504C319.515 26.9396 315.366 30.303 309.928 33.0037C299.057 38.4024 283.565 40.8939 271.948 41.5014L272.052 43.4986Z" fill="black"/>
</svg>
