<svg width="92" height="50" viewBox="0 0 92 50" fill="none" xmlns="http://www.w3.org/2000/svg">
<path d="M73.3309 18.6666H77.9976M73.3309 12.8333H82.6643M72.7499 4.08325C70.9346 4.13809 69.8531 4.33992 69.1041 5.08892C68.0786 6.11559 68.0786 7.76642 68.0786 11.0693V18.6596C68.0786 21.9636 68.0786 23.6144 69.1041 24.6411C70.1284 25.6666 71.7793 25.6666 75.0786 25.6666H80.9119C84.2124 25.6666 85.8621 25.6666 86.8864 24.6399C87.9131 23.6144 87.9131 21.9636 87.9131 18.6596V11.0693C87.9131 7.76759 87.9131 6.11559 86.8864 5.08892C86.1386 4.33992 85.0559 4.13809 83.2406 4.08325" stroke="black" stroke-width="2" stroke-linecap="round" stroke-linejoin="round"/>
<path d="M72.7454 4.37492C72.7454 3.24792 73.66 2.33325 74.787 2.33325H81.2037C81.7452 2.33325 82.2645 2.54836 82.6474 2.93124C83.0303 3.31413 83.2454 3.83343 83.2454 4.37492C83.2454 4.9164 83.0303 5.43571 82.6474 5.81859C82.2645 6.20148 81.7452 6.41659 81.2037 6.41659H74.787C74.2455 6.41659 73.7262 6.20148 73.3434 5.81859C72.9605 5.43571 72.7454 4.9164 72.7454 4.37492Z" stroke="black" stroke-width="2" stroke-linecap="round" stroke-linejoin="round"/>
<path d="M10.8833 49.5L9.91062 37.994L0.432503 44.5894L10.8833 49.5ZM54.8311 6.00137C43.1062 6.61443 27.2958 9.12799 16.0658 14.7051C10.4536 17.4922 5.85297 21.1094 3.56112 25.7666C1.2372 30.4889 1.37766 36.09 4.86197 42.5859L6.62444 41.6405C3.37632 35.585 3.37531 30.6737 5.3556 26.6496C7.36798 22.5604 11.5172 19.197 16.9554 16.4963C27.8262 11.0976 43.3182 8.60608 54.9355 7.99863L54.8311 6.00137Z" fill="black"/>
</svg>
