<svg width="329" height="50" viewBox="0 0 329 50" fill="none" xmlns="http://www.w3.org/2000/svg">
<path d="M98.4382 18V4.90909H103.104C104.123 4.90909 104.967 5.09446 105.636 5.4652C106.305 5.83594 106.805 6.34304 107.138 6.98651C107.47 7.62571 107.636 8.34588 107.636 9.14702C107.636 9.95241 107.468 10.6768 107.131 11.3203C106.799 11.9595 106.296 12.4666 105.623 12.8416C104.954 13.2124 104.112 13.3977 103.098 13.3977H99.8892V11.723H102.919C103.563 11.723 104.085 11.6122 104.485 11.3906C104.886 11.1648 105.18 10.858 105.367 10.4702C105.555 10.0824 105.648 9.64133 105.648 9.14702C105.648 8.6527 105.555 8.21378 105.367 7.83026C105.18 7.44673 104.884 7.14631 104.479 6.92898C104.078 6.71165 103.55 6.60298 102.893 6.60298H100.413V18H98.4382ZM109.798 18V8.18182H111.646V9.74148H111.748C111.927 9.21307 112.242 8.79758 112.694 8.49503C113.15 8.18821 113.666 8.0348 114.241 8.0348C114.36 8.0348 114.501 8.03906 114.663 8.04759C114.829 8.05611 114.959 8.06676 115.053 8.07955V9.90767C114.976 9.88636 114.84 9.86293 114.644 9.83736C114.448 9.80753 114.252 9.79261 114.056 9.79261C113.604 9.79261 113.201 9.88849 112.847 10.0803C112.498 10.2678 112.221 10.5298 112.017 10.8665C111.812 11.1989 111.71 11.5781 111.71 12.0043V18H109.798ZM120.491 18.1982C119.57 18.1982 118.767 17.9872 118.081 17.5653C117.395 17.1435 116.862 16.5533 116.483 15.7947C116.104 15.0362 115.914 14.1499 115.914 13.1357C115.914 12.1172 116.104 11.2266 116.483 10.4638C116.862 9.70099 117.395 9.10866 118.081 8.68679C118.767 8.26491 119.57 8.05398 120.491 8.05398C121.411 8.05398 122.214 8.26491 122.901 8.68679C123.587 9.10866 124.119 9.70099 124.499 10.4638C124.878 11.2266 125.067 12.1172 125.067 13.1357C125.067 14.1499 124.878 15.0362 124.499 15.7947C124.119 16.5533 123.587 17.1435 122.901 17.5653C122.214 17.9872 121.411 18.1982 120.491 18.1982ZM120.497 16.5938C121.094 16.5938 121.588 16.4361 121.98 16.1207C122.372 15.8054 122.662 15.3857 122.849 14.8615C123.041 14.3374 123.137 13.7599 123.137 13.1293C123.137 12.5028 123.041 11.9276 122.849 11.4034C122.662 10.875 122.372 10.451 121.98 10.1314C121.588 9.81179 121.094 9.65199 120.497 9.65199C119.896 9.65199 119.398 9.81179 119.001 10.1314C118.609 10.451 118.317 10.875 118.126 11.4034C117.938 11.9276 117.844 12.5028 117.844 13.1293C117.844 13.7599 117.938 14.3374 118.126 14.8615C118.317 15.3857 118.609 15.8054 119.001 16.1207C119.398 16.4361 119.896 16.5938 120.497 16.5938ZM127.201 8.18182H129.112V18.6392C129.112 19.2955 128.993 19.8494 128.754 20.3011C128.52 20.7528 128.17 21.0959 127.706 21.3303C127.246 21.5646 126.677 21.6818 125.999 21.6818C125.931 21.6818 125.867 21.6818 125.807 21.6818C125.743 21.6818 125.677 21.6797 125.609 21.6754V20.0327C125.669 20.0327 125.722 20.0327 125.769 20.0327C125.812 20.0327 125.861 20.0327 125.916 20.0327C126.368 20.0327 126.694 19.9112 126.894 19.6683C127.099 19.4297 127.201 19.0824 127.201 18.6264V8.18182ZM128.147 6.6669C127.814 6.6669 127.529 6.55611 127.29 6.33452C127.056 6.10866 126.939 5.8402 126.939 5.52912C126.939 5.21378 127.056 4.94531 127.29 4.72372C127.529 4.49787 127.814 4.38494 128.147 4.38494C128.479 4.38494 128.763 4.49787 128.997 4.72372C129.236 4.94531 129.355 5.21378 129.355 5.52912C129.355 5.8402 129.236 6.10866 128.997 6.33452C128.763 6.55611 128.479 6.6669 128.147 6.6669ZM135.915 18.1982C134.947 18.1982 134.114 17.9915 133.415 17.5781C132.721 17.1605 132.184 16.5746 131.805 15.8203C131.43 15.0618 131.242 14.1733 131.242 13.1548C131.242 12.1491 131.43 11.2628 131.805 10.4957C132.184 9.72869 132.712 9.12997 133.39 8.69957C134.072 8.26918 134.869 8.05398 135.781 8.05398C136.335 8.05398 136.871 8.1456 137.391 8.32884C137.911 8.51207 138.378 8.79972 138.791 9.19176C139.205 9.58381 139.531 10.093 139.769 10.7195C140.008 11.3416 140.127 12.098 140.127 12.9886V13.6662H132.322V12.2344H138.254C138.254 11.7315 138.152 11.2862 137.947 10.8984C137.743 10.5064 137.455 10.1974 137.085 9.97159C136.718 9.74574 136.288 9.63281 135.793 9.63281C135.256 9.63281 134.788 9.76491 134.387 10.0291C133.991 10.2891 133.684 10.63 133.467 11.0518C133.254 11.4695 133.147 11.9233 133.147 12.4134V13.532C133.147 14.1882 133.262 14.7464 133.492 15.2067C133.727 15.6669 134.053 16.0185 134.47 16.2614C134.888 16.5 135.376 16.6193 135.934 16.6193C136.296 16.6193 136.626 16.5682 136.925 16.4659C137.223 16.3594 137.481 16.2017 137.698 15.9929C137.915 15.7841 138.082 15.5263 138.197 15.2195L140.006 15.5455C139.861 16.0781 139.601 16.5447 139.226 16.9453C138.855 17.3416 138.388 17.6506 137.826 17.8722C137.268 18.0895 136.631 18.1982 135.915 18.1982ZM146.383 18.1982C145.433 18.1982 144.615 17.983 143.929 17.5526C143.247 17.1179 142.723 16.5192 142.356 15.7564C141.99 14.9936 141.807 14.12 141.807 13.1357C141.807 12.1385 141.994 11.2585 142.369 10.4957C142.744 9.72869 143.273 9.12997 143.954 8.69957C144.636 8.26918 145.439 8.05398 146.364 8.05398C147.11 8.05398 147.775 8.19247 148.358 8.46946C148.942 8.74219 149.413 9.12571 149.771 9.62003C150.133 10.1143 150.349 10.6918 150.417 11.3523H148.557C148.454 10.892 148.22 10.4957 147.854 10.1634C147.491 9.83097 147.006 9.66477 146.396 9.66477C145.863 9.66477 145.397 9.8054 144.996 10.0866C144.6 10.3636 144.291 10.7599 144.069 11.2756C143.848 11.7869 143.737 12.392 143.737 13.0909C143.737 13.8068 143.846 14.4247 144.063 14.9446C144.28 15.4645 144.587 15.8672 144.983 16.1527C145.384 16.4382 145.855 16.581 146.396 16.581C146.758 16.581 147.086 16.5149 147.381 16.3828C147.679 16.2464 147.928 16.0526 148.128 15.8011C148.333 15.5497 148.476 15.2472 148.557 14.8935H150.417C150.349 15.5284 150.142 16.0952 149.797 16.5938C149.452 17.0923 148.989 17.4844 148.41 17.7699C147.834 18.0554 147.159 18.1982 146.383 18.1982ZM157.044 8.18182V9.71591H151.681V8.18182H157.044ZM153.119 5.82955H155.03V15.1172C155.03 15.4879 155.086 15.767 155.196 15.9545C155.307 16.1378 155.45 16.2635 155.625 16.3317C155.804 16.3956 155.998 16.4276 156.206 16.4276C156.36 16.4276 156.494 16.4169 156.609 16.3956C156.724 16.3743 156.814 16.3572 156.877 16.3445L157.223 17.9233C157.112 17.9659 156.954 18.0085 156.75 18.0511C156.545 18.098 156.289 18.1236 155.983 18.1278C155.48 18.1364 155.011 18.0469 154.576 17.8594C154.142 17.6719 153.79 17.3821 153.522 16.9901C153.253 16.598 153.119 16.1058 153.119 15.5135V5.82955ZM164.075 18V4.90909H165.986V9.77344H166.101C166.212 9.56889 166.372 9.33239 166.581 9.06392C166.789 8.79545 167.079 8.56108 167.45 8.3608C167.821 8.15625 168.311 8.05398 168.92 8.05398C169.713 8.05398 170.42 8.25426 171.042 8.65483C171.664 9.0554 172.152 9.63281 172.506 10.3871C172.864 11.1413 173.043 12.049 173.043 13.1101C173.043 14.1712 172.866 15.081 172.512 15.8395C172.159 16.5937 171.673 17.1754 171.055 17.5845C170.437 17.9893 169.732 18.1918 168.939 18.1918C168.343 18.1918 167.855 18.0916 167.475 17.8913C167.1 17.6911 166.806 17.4567 166.593 17.1882C166.38 16.9197 166.216 16.6811 166.101 16.4723H165.941V18H164.075ZM165.948 13.0909C165.948 13.7812 166.048 14.3864 166.248 14.9062C166.449 15.4261 166.738 15.8331 167.118 16.1271C167.497 16.4169 167.961 16.5618 168.511 16.5618C169.082 16.5618 169.559 16.4105 169.943 16.108C170.326 15.8011 170.616 15.3857 170.812 14.8615C171.012 14.3374 171.113 13.7472 171.113 13.0909C171.113 12.4432 171.015 11.8615 170.819 11.3459C170.627 10.8303 170.337 10.4233 169.949 10.125C169.566 9.8267 169.086 9.67756 168.511 9.67756C167.957 9.67756 167.488 9.82031 167.105 10.1058C166.725 10.3913 166.438 10.7898 166.242 11.3011C166.046 11.8125 165.948 12.4091 165.948 13.0909ZM178.046 18.2173C177.424 18.2173 176.862 18.1023 176.359 17.8722C175.856 17.6378 175.458 17.299 175.164 16.8558C174.874 16.4126 174.729 15.8693 174.729 15.2259C174.729 14.6719 174.835 14.2159 175.048 13.858C175.262 13.5 175.549 13.2166 175.911 13.0078C176.274 12.799 176.678 12.6413 177.126 12.5348C177.573 12.4283 178.029 12.3473 178.494 12.2919C179.082 12.2237 179.559 12.1683 179.926 12.1257C180.292 12.0788 180.558 12.0043 180.725 11.902C180.891 11.7997 180.974 11.6335 180.974 11.4034V11.3587C180.974 10.8004 180.816 10.3679 180.501 10.0611C180.19 9.75426 179.725 9.60085 179.107 9.60085C178.464 9.60085 177.957 9.74361 177.586 10.0291C177.22 10.3104 176.966 10.6236 176.825 10.9688L175.029 10.5597C175.242 9.96307 175.553 9.48153 175.963 9.11506C176.376 8.74432 176.851 8.47585 177.388 8.30966C177.925 8.1392 178.49 8.05398 179.082 8.05398C179.474 8.05398 179.889 8.10085 180.328 8.1946C180.771 8.28409 181.185 8.45028 181.568 8.69318C181.956 8.93608 182.274 9.28338 182.521 9.73509C182.768 10.1825 182.892 10.7642 182.892 11.4801V18H181.025V16.6577H180.948C180.825 16.9048 180.639 17.1477 180.392 17.3864C180.145 17.625 179.828 17.8232 179.44 17.9808C179.052 18.1385 178.588 18.2173 178.046 18.2173ZM178.462 16.6832C178.99 16.6832 179.442 16.5788 179.817 16.37C180.196 16.1612 180.484 15.8885 180.68 15.5518C180.88 15.2109 180.98 14.8466 180.98 14.4588V13.1932C180.912 13.2614 180.78 13.3253 180.584 13.3849C180.392 13.4403 180.173 13.4893 179.926 13.532C179.678 13.5703 179.438 13.6065 179.203 13.6406C178.969 13.6705 178.773 13.696 178.615 13.7173C178.244 13.7642 177.906 13.843 177.599 13.9538C177.296 14.0646 177.053 14.2244 176.87 14.4332C176.691 14.6378 176.602 14.9105 176.602 15.2514C176.602 15.7244 176.776 16.0824 177.126 16.3253C177.475 16.5639 177.921 16.6832 178.462 16.6832ZM192.794 10.5788L191.062 10.8857C190.99 10.6641 190.875 10.4531 190.717 10.2528C190.564 10.0526 190.355 9.88849 190.091 9.76065C189.826 9.63281 189.496 9.56889 189.1 9.56889C188.559 9.56889 188.107 9.69034 187.745 9.93324C187.382 10.1719 187.201 10.4808 187.201 10.8601C187.201 11.1882 187.323 11.4524 187.566 11.6527C187.809 11.853 188.201 12.017 188.742 12.1449L190.301 12.5028C191.205 12.7116 191.878 13.0334 192.321 13.468C192.765 13.9027 192.986 14.4673 192.986 15.1619C192.986 15.75 192.816 16.2741 192.475 16.7344C192.138 17.1903 191.667 17.5483 191.062 17.8082C190.461 18.0682 189.765 18.1982 188.972 18.1982C187.873 18.1982 186.975 17.9638 186.281 17.495C185.586 17.022 185.16 16.3509 185.002 15.4815L186.85 15.2003C186.965 15.6818 187.201 16.0462 187.559 16.2933C187.917 16.5362 188.384 16.6577 188.959 16.6577C189.586 16.6577 190.086 16.5277 190.461 16.2678C190.836 16.0036 191.024 15.6818 191.024 15.3026C191.024 14.9957 190.909 14.7379 190.679 14.5291C190.453 14.3203 190.105 14.1626 189.637 14.0561L187.975 13.6918C187.059 13.483 186.381 13.1506 185.942 12.6946C185.507 12.2386 185.29 11.6612 185.29 10.9624C185.29 10.3828 185.452 9.87571 185.776 9.44105C186.1 9.00639 186.547 8.66761 187.118 8.42472C187.689 8.17756 188.343 8.05398 189.081 8.05398C190.142 8.05398 190.977 8.28409 191.586 8.74432C192.196 9.20028 192.598 9.81179 192.794 10.5788ZM199.319 18.1982C198.352 18.1982 197.519 17.9915 196.82 17.5781C196.125 17.1605 195.588 16.5746 195.209 15.8203C194.834 15.0618 194.646 14.1733 194.646 13.1548C194.646 12.1491 194.834 11.2628 195.209 10.4957C195.588 9.72869 196.117 9.12997 196.794 8.69957C197.476 8.26918 198.273 8.05398 199.185 8.05398C199.739 8.05398 200.276 8.1456 200.796 8.32884C201.316 8.51207 201.782 8.79972 202.195 9.19176C202.609 9.58381 202.935 10.093 203.173 10.7195C203.412 11.3416 203.531 12.098 203.531 12.9886V13.6662H195.727V12.2344H201.659C201.659 11.7315 201.556 11.2862 201.352 10.8984C201.147 10.5064 200.86 10.1974 200.489 9.97159C200.122 9.74574 199.692 9.63281 199.198 9.63281C198.661 9.63281 198.192 9.76491 197.791 10.0291C197.395 10.2891 197.088 10.63 196.871 11.0518C196.658 11.4695 196.551 11.9233 196.551 12.4134V13.532C196.551 14.1882 196.666 14.7464 196.896 15.2067C197.131 15.6669 197.457 16.0185 197.874 16.2614C198.292 16.5 198.78 16.6193 199.338 16.6193C199.7 16.6193 200.031 16.5682 200.329 16.4659C200.627 16.3594 200.885 16.2017 201.102 15.9929C201.32 15.7841 201.486 15.5263 201.601 15.2195L203.41 15.5455C203.265 16.0781 203.005 16.5447 202.63 16.9453C202.259 17.3416 201.793 17.6506 201.23 17.8722C200.672 18.0895 200.035 18.1982 199.319 18.1982ZM209.327 18.1918C208.535 18.1918 207.827 17.9893 207.205 17.5845C206.587 17.1754 206.102 16.5937 205.748 15.8395C205.398 15.081 205.224 14.1712 205.224 13.1101C205.224 12.049 205.401 11.1413 205.754 10.3871C206.112 9.63281 206.602 9.0554 207.224 8.65483C207.847 8.25426 208.552 8.05398 209.34 8.05398C209.95 8.05398 210.44 8.15625 210.81 8.3608C211.185 8.56108 211.475 8.79545 211.68 9.06392C211.888 9.33239 212.05 9.56889 212.165 9.77344H212.281V4.90909H214.192V18H212.325V16.4723H212.165C212.05 16.6811 211.884 16.9197 211.667 17.1882C211.454 17.4567 211.16 17.6911 210.785 17.8913C210.41 18.0916 209.924 18.1918 209.327 18.1918ZM209.749 16.5618C210.299 16.5618 210.763 16.4169 211.143 16.1271C211.526 15.8331 211.816 15.4261 212.012 14.9062C212.212 14.3864 212.312 13.7812 212.312 13.0909C212.312 12.4091 212.214 11.8125 212.018 11.3011C211.822 10.7898 211.535 10.3913 211.156 10.1058C210.776 9.82031 210.308 9.67756 209.749 9.67756C209.174 9.67756 208.695 9.8267 208.311 10.125C207.928 10.4233 207.638 10.8303 207.442 11.3459C207.25 11.8615 207.154 12.4432 207.154 13.0909C207.154 13.7472 207.252 14.3374 207.448 14.8615C207.644 15.3857 207.934 15.8011 208.317 16.108C208.705 16.4105 209.183 16.5618 209.749 16.5618ZM225.915 18.1982C224.947 18.1982 224.114 17.9915 223.415 17.5781C222.721 17.1605 222.184 16.5746 221.805 15.8203C221.43 15.0618 221.242 14.1733 221.242 13.1548C221.242 12.1491 221.43 11.2628 221.805 10.4957C222.184 9.72869 222.712 9.12997 223.39 8.69957C224.072 8.26918 224.869 8.05398 225.781 8.05398C226.335 8.05398 226.871 8.1456 227.391 8.32884C227.911 8.51207 228.378 8.79972 228.791 9.19176C229.205 9.58381 229.531 10.093 229.769 10.7195C230.008 11.3416 230.127 12.098 230.127 12.9886V13.6662H222.322V12.2344H228.254C228.254 11.7315 228.152 11.2862 227.947 10.8984C227.743 10.5064 227.455 10.1974 227.085 9.97159C226.718 9.74574 226.288 9.63281 225.793 9.63281C225.256 9.63281 224.788 9.76491 224.387 10.0291C223.991 10.2891 223.684 10.63 223.467 11.0518C223.254 11.4695 223.147 11.9233 223.147 12.4134V13.532C223.147 14.1882 223.262 14.7464 223.492 15.2067C223.727 15.6669 224.053 16.0185 224.47 16.2614C224.888 16.5 225.376 16.6193 225.934 16.6193C226.296 16.6193 226.626 16.5682 226.925 16.4659C227.223 16.3594 227.481 16.2017 227.698 15.9929C227.915 15.7841 228.082 15.5263 228.197 15.2195L230.006 15.5455C229.861 16.0781 229.601 16.5447 229.226 16.9453C228.855 17.3416 228.388 17.6506 227.826 17.8722C227.268 18.0895 226.631 18.1982 225.915 18.1982ZM234.159 12.1705V18H232.248V8.18182H234.082V9.77983H234.204C234.43 9.25994 234.783 8.84233 235.265 8.52699C235.751 8.21165 236.362 8.05398 237.099 8.05398C237.768 8.05398 238.354 8.1946 238.857 8.47585C239.36 8.75284 239.75 9.16619 240.027 9.71591C240.304 10.2656 240.442 10.9453 240.442 11.755V18H238.531V11.9851C238.531 11.2734 238.346 10.7173 237.975 10.3168C237.604 9.91193 237.095 9.70952 236.447 9.70952C236.004 9.70952 235.61 9.8054 235.265 9.99716C234.924 10.1889 234.653 10.4702 234.453 10.8409C234.257 11.2074 234.159 11.6506 234.159 12.1705ZM247.122 21.8864C246.342 21.8864 245.671 21.7841 245.108 21.5795C244.55 21.375 244.094 21.1044 243.741 20.7678C243.387 20.4311 243.123 20.0625 242.948 19.6619L244.591 18.9844C244.706 19.1719 244.859 19.37 245.051 19.5788C245.247 19.7919 245.511 19.973 245.844 20.1222C246.18 20.2713 246.613 20.3459 247.141 20.3459C247.866 20.3459 248.464 20.169 248.937 19.8153C249.41 19.4659 249.647 18.9077 249.647 18.1406V16.2102H249.525C249.41 16.419 249.244 16.6513 249.027 16.907C248.814 17.1626 248.52 17.3842 248.145 17.5717C247.77 17.7592 247.282 17.853 246.681 17.853C245.905 17.853 245.206 17.6719 244.584 17.3097C243.966 16.9432 243.476 16.4041 243.114 15.6925C242.756 14.9766 242.577 14.0966 242.577 13.0526C242.577 12.0085 242.754 11.1136 243.108 10.3679C243.466 9.62216 243.956 9.05114 244.578 8.65483C245.2 8.25426 245.905 8.05398 246.694 8.05398C247.303 8.05398 247.795 8.15625 248.17 8.3608C248.545 8.56108 248.837 8.79545 249.046 9.06392C249.259 9.33239 249.423 9.56889 249.538 9.77344H249.679V8.18182H251.552V18.2173C251.552 19.0611 251.356 19.7536 250.964 20.2947C250.572 20.8359 250.041 21.2365 249.372 21.4964C248.707 21.7564 247.957 21.8864 247.122 21.8864ZM247.103 16.2678C247.653 16.2678 248.117 16.1399 248.496 15.8842C248.88 15.6243 249.17 15.2536 249.366 14.772C249.566 14.2862 249.666 13.7045 249.666 13.027C249.666 12.3665 249.568 11.7848 249.372 11.282C249.176 10.7791 248.888 10.3871 248.509 10.1058C248.13 9.82031 247.661 9.67756 247.103 9.67756C246.528 9.67756 246.048 9.8267 245.665 10.125C245.281 10.419 244.991 10.8196 244.795 11.3267C244.604 11.8338 244.508 12.4006 244.508 13.027C244.508 13.6705 244.606 14.2351 244.802 14.7209C244.998 15.2067 245.287 15.5859 245.671 15.8587C246.059 16.1314 246.536 16.2678 247.103 16.2678ZM256.972 18.2173C256.35 18.2173 255.787 18.1023 255.285 17.8722C254.782 17.6378 254.383 17.299 254.089 16.8558C253.8 16.4126 253.655 15.8693 253.655 15.2259C253.655 14.6719 253.761 14.2159 253.974 13.858C254.187 13.5 254.475 13.2166 254.837 13.0078C255.199 12.799 255.604 12.6413 256.052 12.5348C256.499 12.4283 256.955 12.3473 257.42 12.2919C258.008 12.2237 258.485 12.1683 258.851 12.1257C259.218 12.0788 259.484 12.0043 259.65 11.902C259.817 11.7997 259.9 11.6335 259.9 11.4034V11.3587C259.9 10.8004 259.742 10.3679 259.427 10.0611C259.116 9.75426 258.651 9.60085 258.033 9.60085C257.39 9.60085 256.883 9.74361 256.512 10.0291C256.145 10.3104 255.892 10.6236 255.751 10.9688L253.955 10.5597C254.168 9.96307 254.479 9.48153 254.888 9.11506C255.302 8.74432 255.777 8.47585 256.314 8.30966C256.851 8.1392 257.415 8.05398 258.008 8.05398C258.4 8.05398 258.815 8.10085 259.254 8.1946C259.697 8.28409 260.111 8.45028 260.494 8.69318C260.882 8.93608 261.199 9.28338 261.447 9.73509C261.694 10.1825 261.817 10.7642 261.817 11.4801V18H259.951V16.6577H259.874C259.751 16.9048 259.565 17.1477 259.318 17.3864C259.071 17.625 258.753 17.8232 258.366 17.9808C257.978 18.1385 257.513 18.2173 256.972 18.2173ZM257.388 16.6832C257.916 16.6832 258.368 16.5788 258.743 16.37C259.122 16.1612 259.41 15.8885 259.606 15.5518C259.806 15.2109 259.906 14.8466 259.906 14.4588V13.1932C259.838 13.2614 259.706 13.3253 259.51 13.3849C259.318 13.4403 259.099 13.4893 258.851 13.532C258.604 13.5703 258.363 13.6065 258.129 13.6406C257.895 13.6705 257.699 13.696 257.541 13.7173C257.17 13.7642 256.831 13.843 256.525 13.9538C256.222 14.0646 255.979 14.2244 255.796 14.4332C255.617 14.6378 255.528 14.9105 255.528 15.2514C255.528 15.7244 255.702 16.0824 256.052 16.3253C256.401 16.5639 256.846 16.6832 257.388 16.6832ZM268.479 21.8864C267.7 21.8864 267.028 21.7841 266.466 21.5795C265.908 21.375 265.452 21.1044 265.098 20.7678C264.744 20.4311 264.48 20.0625 264.305 19.6619L265.948 18.9844C266.063 19.1719 266.217 19.37 266.408 19.5788C266.604 19.7919 266.869 19.973 267.201 20.1222C267.538 20.2713 267.97 20.3459 268.499 20.3459C269.223 20.3459 269.822 20.169 270.295 19.8153C270.768 19.4659 271.004 18.9077 271.004 18.1406V16.2102H270.883C270.768 16.419 270.602 16.6513 270.384 16.907C270.171 17.1626 269.877 17.3842 269.502 17.5717C269.127 17.7592 268.639 17.853 268.038 17.853C267.263 17.853 266.564 17.6719 265.942 17.3097C265.324 16.9432 264.834 16.4041 264.472 15.6925C264.114 14.9766 263.935 14.0966 263.935 13.0526C263.935 12.0085 264.112 11.1136 264.465 10.3679C264.823 9.62216 265.313 9.05114 265.935 8.65483C266.558 8.25426 267.263 8.05398 268.051 8.05398C268.661 8.05398 269.153 8.15625 269.528 8.3608C269.903 8.56108 270.195 8.79545 270.403 9.06392C270.616 9.33239 270.781 9.56889 270.896 9.77344H271.036V8.18182H272.909V18.2173C272.909 19.0611 272.713 19.7536 272.321 20.2947C271.929 20.8359 271.398 21.2365 270.729 21.4964C270.065 21.7564 269.315 21.8864 268.479 21.8864ZM268.46 16.2678C269.01 16.2678 269.474 16.1399 269.854 15.8842C270.237 15.6243 270.527 15.2536 270.723 14.772C270.923 14.2862 271.023 13.7045 271.023 13.027C271.023 12.3665 270.925 11.7848 270.729 11.282C270.533 10.7791 270.246 10.3871 269.866 10.1058C269.487 9.82031 269.018 9.67756 268.46 9.67756C267.885 9.67756 267.406 9.8267 267.022 10.125C266.638 10.419 266.349 10.8196 266.153 11.3267C265.961 11.8338 265.865 12.4006 265.865 13.027C265.865 13.6705 265.963 14.2351 266.159 14.7209C266.355 15.2067 266.645 15.5859 267.028 15.8587C267.416 16.1314 267.893 16.2678 268.46 16.2678ZM279.704 18.1982C278.737 18.1982 277.903 17.9915 277.205 17.5781C276.51 17.1605 275.973 16.5746 275.594 15.8203C275.219 15.0618 275.031 14.1733 275.031 13.1548C275.031 12.1491 275.219 11.2628 275.594 10.4957C275.973 9.72869 276.501 9.12997 277.179 8.69957C277.861 8.26918 278.658 8.05398 279.57 8.05398C280.124 8.05398 280.661 8.1456 281.18 8.32884C281.7 8.51207 282.167 8.79972 282.58 9.19176C282.994 9.58381 283.32 10.093 283.558 10.7195C283.797 11.3416 283.916 12.098 283.916 12.9886V13.6662H276.112V12.2344H282.043C282.043 11.7315 281.941 11.2862 281.737 10.8984C281.532 10.5064 281.244 10.1974 280.874 9.97159C280.507 9.74574 280.077 9.63281 279.582 9.63281C279.045 9.63281 278.577 9.76491 278.176 10.0291C277.78 10.2891 277.473 10.63 277.256 11.0518C277.043 11.4695 276.936 11.9233 276.936 12.4134V13.532C276.936 14.1882 277.051 14.7464 277.281 15.2067C277.516 15.6669 277.842 16.0185 278.259 16.2614C278.677 16.5 279.165 16.6193 279.723 16.6193C280.085 16.6193 280.415 16.5682 280.714 16.4659C281.012 16.3594 281.27 16.2017 281.487 15.9929C281.705 15.7841 281.871 15.5263 281.986 15.2195L283.795 15.5455C283.65 16.0781 283.39 16.5447 283.015 16.9453C282.644 17.3416 282.178 17.6506 281.615 17.8722C281.057 18.0895 280.42 18.1982 279.704 18.1982ZM286.037 18V8.18182H287.871V9.77983H287.993C288.197 9.23864 288.532 8.81676 288.996 8.5142C289.461 8.20739 290.017 8.05398 290.665 8.05398C291.321 8.05398 291.871 8.20739 292.314 8.5142C292.761 8.82102 293.091 9.2429 293.305 9.77983H293.407C293.641 9.25568 294.014 8.83807 294.525 8.52699C295.037 8.21165 295.646 8.05398 296.354 8.05398C297.244 8.05398 297.971 8.3331 298.533 8.89134C299.1 9.44957 299.383 10.2912 299.383 11.4162V18H297.472V11.5952C297.472 10.9304 297.291 10.4489 296.929 10.1506C296.567 9.85227 296.134 9.70312 295.631 9.70312C295.009 9.70312 294.525 9.89489 294.18 10.2784C293.835 10.6577 293.662 11.1456 293.662 11.7422V18H291.758V11.4737C291.758 10.9411 291.591 10.5128 291.259 10.1889C290.927 9.86506 290.494 9.70312 289.961 9.70312C289.599 9.70312 289.265 9.79901 288.958 9.99077C288.655 10.1783 288.41 10.4403 288.223 10.777C288.04 11.1136 287.948 11.5036 287.948 11.9467V18H286.037ZM306.176 18.1982C305.209 18.1982 304.376 17.9915 303.677 17.5781C302.983 17.1605 302.446 16.5746 302.066 15.8203C301.691 15.0618 301.504 14.1733 301.504 13.1548C301.504 12.1491 301.691 11.2628 302.066 10.4957C302.446 9.72869 302.974 9.12997 303.652 8.69957C304.333 8.26918 305.13 8.05398 306.042 8.05398C306.596 8.05398 307.133 8.1456 307.653 8.32884C308.173 8.51207 308.64 8.79972 309.053 9.19176C309.466 9.58381 309.792 10.093 310.031 10.7195C310.27 11.3416 310.389 12.098 310.389 12.9886V13.6662H302.584V12.2344H308.516C308.516 11.7315 308.414 11.2862 308.209 10.8984C308.005 10.5064 307.717 10.1974 307.346 9.97159C306.98 9.74574 306.549 9.63281 306.055 9.63281C305.518 9.63281 305.049 9.76491 304.649 10.0291C304.252 10.2891 303.946 10.63 303.728 11.0518C303.515 11.4695 303.409 11.9233 303.409 12.4134V13.532C303.409 14.1882 303.524 14.7464 303.754 15.2067C303.988 15.6669 304.314 16.0185 304.732 16.2614C305.15 16.5 305.637 16.6193 306.196 16.6193C306.558 16.6193 306.888 16.5682 307.186 16.4659C307.485 16.3594 307.743 16.2017 307.96 15.9929C308.177 15.7841 308.343 15.5263 308.458 15.2195L310.267 15.5455C310.123 16.0781 309.863 16.5447 309.488 16.9453C309.117 17.3416 308.65 17.6506 308.088 17.8722C307.529 18.0895 306.892 18.1982 306.176 18.1982ZM314.421 12.1705V18H312.509V8.18182H314.344V9.77983H314.465C314.691 9.25994 315.045 8.84233 315.526 8.52699C316.012 8.21165 316.624 8.05398 317.361 8.05398C318.03 8.05398 318.616 8.1946 319.119 8.47585C319.622 8.75284 320.012 9.16619 320.289 9.71591C320.566 10.2656 320.704 10.9453 320.704 11.755V18H318.793V11.9851C318.793 11.2734 318.607 10.7173 318.237 10.3168C317.866 9.91193 317.357 9.70952 316.709 9.70952C316.266 9.70952 315.872 9.8054 315.526 9.99716C315.186 10.1889 314.915 10.4702 314.715 10.8409C314.519 11.2074 314.421 11.6506 314.421 12.1705ZM327.85 8.18182V9.71591H322.487V8.18182H327.85ZM323.926 5.82955H325.837V15.1172C325.837 15.4879 325.892 15.767 326.003 15.9545C326.114 16.1378 326.257 16.2635 326.431 16.3317C326.61 16.3956 326.804 16.4276 327.013 16.4276C327.166 16.4276 327.301 16.4169 327.416 16.3956C327.531 16.3743 327.62 16.3572 327.684 16.3445L328.029 17.9233C327.919 17.9659 327.761 18.0085 327.556 18.0511C327.352 18.098 327.096 18.1236 326.789 18.1278C326.286 18.1364 325.818 18.0469 325.383 17.8594C324.948 17.6719 324.597 17.3821 324.328 16.9901C324.06 16.598 323.926 16.1058 323.926 15.5135V5.82955Z" fill="#2E2E2E"/>
<path d="M73.3309 18.6666H77.9976M73.3309 12.8333H82.6643M72.7499 4.08325C70.9346 4.13809 69.8531 4.33992 69.1041 5.08892C68.0786 6.11559 68.0786 7.76642 68.0786 11.0693V18.6596C68.0786 21.9636 68.0786 23.6144 69.1041 24.6411C70.1284 25.6666 71.7793 25.6666 75.0786 25.6666H80.9119C84.2124 25.6666 85.8621 25.6666 86.8864 24.6399C87.9131 23.6144 87.9131 21.9636 87.9131 18.6596V11.0693C87.9131 7.76759 87.9131 6.11559 86.8864 5.08892C86.1386 4.33992 85.0559 4.13809 83.2406 4.08325" stroke="black" stroke-width="2" stroke-linecap="round" stroke-linejoin="round"/>
<path d="M72.7454 4.37492C72.7454 3.24792 73.66 2.33325 74.787 2.33325H81.2037C81.7452 2.33325 82.2645 2.54836 82.6474 2.93124C83.0303 3.31413 83.2454 3.83343 83.2454 4.37492C83.2454 4.9164 83.0303 5.43571 82.6474 5.81859C82.2645 6.20148 81.7452 6.41659 81.2037 6.41659H74.787C74.2455 6.41659 73.7262 6.20148 73.3434 5.81859C72.9605 5.43571 72.7454 4.9164 72.7454 4.37492Z" stroke="black" stroke-width="2" stroke-linecap="round" stroke-linejoin="round"/>
<path d="M10.8833 49.5L9.91062 37.994L0.432503 44.5894L10.8833 49.5ZM54.8311 6.00137C43.1062 6.61443 27.2958 9.12799 16.0658 14.7051C10.4536 17.4922 5.85297 21.1094 3.56112 25.7666C1.2372 30.4889 1.37766 36.09 4.86197 42.5859L6.62444 41.6405C3.37632 35.585 3.37531 30.6737 5.3556 26.6496C7.36798 22.5604 11.5172 19.197 16.9554 16.4963C27.8262 11.0976 43.3182 8.60608 54.9355 7.99863L54.8311 6.00137Z" fill="black"/>
</svg>
