<svg width="32" height="32" viewBox="0 0 32 32" fill="none" xmlns="http://www.w3.org/2000/svg">
<path d="M16.0001 29.3332C17.7514 29.3353 19.4858 28.9914 21.1038 28.3212C22.7217 27.651 24.1913 26.6677 25.4281 25.4278C26.668 24.1911 27.6513 22.7215 28.3215 21.1035C28.9917 19.4856 29.3356 17.7511 29.3334 15.9998C29.3356 14.2486 28.9917 12.5141 28.3215 10.8962C27.6513 9.27822 26.668 7.80863 25.4281 6.57185C24.1913 5.33195 22.7217 4.34866 21.1038 3.67846C19.4858 3.00826 17.7514 2.66435 16.0001 2.66651C14.2488 2.66435 12.5144 3.00826 10.8964 3.67846C9.27846 4.34866 7.80887 5.33195 6.57209 6.57185C5.3322 7.80863 4.3489 9.27822 3.6787 10.8962C3.0085 12.5141 2.6646 14.2486 2.66676 15.9998C2.6646 17.7511 3.0085 19.4856 3.6787 21.1035C4.3489 22.7215 5.3322 24.1911 6.57209 25.4278C7.80887 26.6677 9.27846 27.651 10.8964 28.3212C12.5144 28.9914 14.2488 29.3353 16.0001 29.3332Z" stroke="black" stroke-width="2.66667" stroke-linejoin="round"/>
<path d="M10.6667 16L14.6667 20L22.6667 12" stroke="white" stroke-width="2.66667" stroke-linecap="round" stroke-linejoin="round"/>
</svg>
