<svg width="33" height="32" viewBox="0 0 33 32" fill="none" xmlns="http://www.w3.org/2000/svg">
<path d="M16.5 4.8002C16.5 4.37585 16.6685 3.96888 16.9686 3.66883C17.2686 3.36877 17.6756 3.2002 18.1 3.2002H18.9C19.516 3.2002 20.0792 3.4322 20.5032 3.8146C20.9443 3.41838 21.5166 3.19951 22.1096 3.2002H23.6936C24.3096 3.2002 24.8728 3.4322 25.2984 3.8146C25.7383 3.41948 26.3086 3.2007 26.9 3.2002H27.7C28.1243 3.2002 28.5313 3.36877 28.8313 3.66883C29.1314 3.96888 29.3 4.37585 29.3 4.8002V8.8002C29.3004 9.70848 28.9917 10.5899 28.4247 11.2994C27.8576 12.009 27.066 12.5044 26.18 12.7042C26.6343 19.173 28.9 23.2402 29.6792 24.4642C29.9352 24.8674 30.1 25.349 30.1 25.8674V26.4002C30.1 26.7154 30.0379 27.0275 29.9173 27.3186C29.7966 27.6098 29.6199 27.8744 29.397 28.0972C29.1741 28.3201 28.9096 28.4969 28.6184 28.6175C28.3272 28.7381 28.0151 28.8002 27.7 28.8002H18.9384C19.2881 28.3262 19.526 27.7792 19.6344 27.2002H27.7C27.9121 27.2002 28.1156 27.1159 28.2656 26.9659C28.4157 26.8159 28.5 26.6124 28.5 26.4002V25.8674C28.4956 25.6735 28.4362 25.4849 28.3288 25.3234C27.412 23.8834 24.8808 19.285 24.5384 12.037C24.5334 11.9297 24.5501 11.8225 24.5875 11.7218C24.6249 11.6211 24.6822 11.5289 24.7559 11.4508C24.8297 11.3727 24.9184 11.3103 25.0168 11.2672C25.1153 11.2242 25.2213 11.2014 25.3288 11.2002C25.9603 11.1926 26.5633 10.9364 27.0072 10.4872C27.4511 10.0379 27.7 9.43176 27.7 8.8002V4.8002H26.9C26.6878 4.8002 26.4843 4.88448 26.3343 5.03451C26.1842 5.18454 26.1 5.38802 26.1 5.6002V7.2002C26.1006 7.41237 26.0169 7.61611 25.8673 7.76659C25.7178 7.91706 25.5145 8.00196 25.3024 8.0026C25.0902 8.00323 24.8864 7.91956 24.736 7.76998C24.5855 7.6204 24.5006 7.41717 24.5 7.205V7.2002L24.492 5.597C24.4911 5.38538 24.4064 5.18272 24.2565 5.03338C24.1066 4.88404 23.9036 4.8002 23.692 4.8002H22.108C21.8963 4.8002 21.6933 4.88404 21.5434 5.03338C21.3935 5.18272 21.3088 5.38538 21.308 5.597L21.3 7.2034C21.2993 7.41557 21.2144 7.6188 21.0639 7.76838C20.9135 7.91796 20.7097 8.00163 20.4976 8.001C20.2854 8.00036 20.0821 7.91546 19.9326 7.76498C19.783 7.61451 19.6993 7.41077 19.7 7.1986V5.5986C19.7 5.38642 19.6157 5.18294 19.4656 5.03291C19.3156 4.88288 19.1121 4.7986 18.9 4.7986H18.1V8.7986C18.0995 9.43043 18.3482 10.037 18.7921 10.4866C19.236 10.9362 19.8394 11.1926 20.4712 11.2002C20.5786 11.2014 20.6846 11.2242 20.7831 11.2672C20.8815 11.3103 20.9702 11.3727 21.044 11.4508C21.1177 11.5289 21.175 11.6211 21.2124 11.7218C21.2498 11.8225 21.2665 11.9297 21.2616 12.037C21.0088 17.381 19.5656 21.2834 18.4584 23.5426C18.3548 23.4374 18.2464 23.337 18.1336 23.2418C17.8117 22.9737 17.517 22.6747 17.2536 22.349C18.1944 20.3042 19.3144 17.045 19.62 12.7026C18.7349 12.5015 17.9443 12.006 17.3775 11.297C16.8107 10.5881 16.5013 9.70783 16.5 8.8002V4.8002ZM7.69995 12.8002C7.69995 12.2931 7.82044 11.7934 8.05149 11.342C8.28254 10.8907 8.61754 10.5007 9.02888 10.2042C9.44022 9.90775 9.91612 9.71326 10.4174 9.63679C10.9186 9.56033 11.4309 9.60407 11.9119 9.76441C12.3929 9.92475 12.8289 10.1971 13.1841 10.559C13.5392 10.9209 13.8032 11.3621 13.9544 11.8461C14.1056 12.33 14.1396 12.843 14.0536 13.3427C13.9677 13.8424 13.7642 14.3146 13.46 14.7202C13.3708 14.8391 13.3165 14.9804 13.3032 15.1284C13.2898 15.2763 13.318 15.4251 13.3844 15.558C13.4509 15.6909 13.553 15.8026 13.6794 15.8807C13.8057 15.9588 13.9514 16.0002 14.1 16.0002H14.9C15.1121 16.0002 15.3156 16.0845 15.4656 16.2345C15.6157 16.3845 15.7 16.588 15.7 16.8002C15.7 17.0124 15.6157 17.2159 15.4656 17.3659C15.3156 17.5159 15.1121 17.6002 14.9 17.6002H13.1288C13.0156 17.6003 12.9038 17.6244 12.8007 17.6708C12.6976 17.7173 12.6055 17.7851 12.5305 17.8698C12.4555 17.9544 12.3993 18.0541 12.3656 18.162C12.332 18.27 12.3216 18.3839 12.3352 18.4962C12.8184 22.4482 14.9096 24.717 16.0792 25.6962C16.3592 25.9298 16.5 26.2242 16.5 26.4786C16.5002 26.5734 16.4816 26.6673 16.4455 26.755C16.4093 26.8426 16.3561 26.9223 16.2891 26.9893C16.222 27.0564 16.1424 27.1095 16.0547 27.1457C15.9671 27.1819 15.8732 27.2004 15.7784 27.2002H6.01995C5.92526 27.2002 5.83151 27.1815 5.74405 27.1452C5.65659 27.109 5.57715 27.0558 5.51027 26.9887C5.44339 26.9217 5.39039 26.8422 5.3543 26.7546C5.31821 26.6671 5.29974 26.5733 5.29995 26.4786C5.29995 26.2226 5.44075 25.9298 5.71915 25.6962C6.89035 24.717 8.98315 22.4482 9.46475 18.4962C9.47832 18.3839 9.46793 18.27 9.43426 18.162C9.40059 18.0541 9.3444 17.9544 9.2694 17.8698C9.19441 17.7851 9.10231 17.7173 8.99919 17.6708C8.89606 17.6244 8.78426 17.6003 8.67115 17.6002H6.89995C6.68778 17.6002 6.4843 17.5159 6.33427 17.3659C6.18424 17.2159 6.09995 17.0124 6.09995 16.8002C6.09995 16.588 6.18424 16.3845 6.33427 16.2345C6.4843 16.0845 6.68778 16.0002 6.89995 16.0002H7.69995C7.84852 16.0002 7.99416 15.9588 8.12054 15.8807C8.24692 15.8026 8.34905 15.6909 8.41549 15.558C8.48194 15.4251 8.51006 15.2763 8.49672 15.1284C8.48338 14.9804 8.42909 14.8391 8.33995 14.7202C7.92452 14.1663 7.69995 13.4926 7.69995 12.8002ZM10.9 8.0002C10.127 7.99998 9.36552 8.18642 8.68012 8.54365C7.99472 8.90088 7.40572 9.41834 6.9632 10.052C6.52069 10.6857 6.23774 11.4169 6.13843 12.1834C6.03911 12.9499 6.12636 13.729 6.39275 14.4546C5.81397 14.58 5.30198 14.9149 4.95524 15.395C4.6085 15.8751 4.4515 16.4664 4.51444 17.0553C4.57737 17.6441 4.8558 18.1889 5.29616 18.5849C5.73653 18.9808 6.30775 19.2 6.89995 19.2002H7.73195C7.13675 22.077 5.56715 23.7378 4.69195 24.469C4.13835 24.933 3.69995 25.6466 3.69995 26.4786C3.69995 27.7602 4.73995 28.8002 6.02155 28.8002H15.78C17.06 28.8002 18.1 27.7602 18.1 26.4786C18.1 25.6466 17.6616 24.933 17.108 24.469C16.2328 23.7378 14.6632 22.077 14.068 19.2002H14.9C15.4922 19.2 16.0634 18.9808 16.5037 18.5849C16.9441 18.1889 17.2225 17.6441 17.2855 17.0553C17.3484 16.4664 17.1914 15.8751 16.8447 15.395C16.4979 14.9149 15.9859 14.58 15.4072 14.4546C15.6735 13.729 15.7608 12.9499 15.6615 12.1834C15.5622 11.4169 15.2792 10.6857 14.8367 10.052C14.3942 9.41834 13.8052 8.90088 13.1198 8.54365C12.4344 8.18642 11.6729 7.99998 10.9 8.0002Z" fill="#FF0D0D"/>
</svg>
