<svg width="29" height="22" viewBox="0 0 29 27" fill="none" xmlns="http://www.w3.org/2000/svg">
<path d="M12.2334 5.98663C12.3227 6.08293 12.3922 6.19587 12.4378 6.31902C12.4835 6.44217 12.5044 6.5731 12.4995 6.70434C12.4945 6.83559 12.4638 6.96457 12.4089 7.08392C12.3541 7.20328 12.2764 7.31067 12.18 7.39996L8.30272 11L12.18 14.6C12.2764 14.6893 12.3541 14.7967 12.4089 14.916C12.4637 15.0354 12.4945 15.1643 12.4994 15.2956C12.5044 15.4268 12.4834 15.5578 12.4378 15.6809C12.3921 15.804 12.3227 15.917 12.2334 16.0133C12.1441 16.1096 12.0367 16.1874 11.9173 16.2422C11.798 16.297 11.669 16.3277 11.5378 16.3327C11.4065 16.3376 11.2756 16.3167 11.1524 16.271C11.0293 16.2254 10.9164 16.1559 10.82 16.0666L6.15338 11.7333C6.05241 11.6397 5.97186 11.5262 5.91677 11.4C5.86169 11.2739 5.83325 11.1377 5.83325 11C5.83325 10.8623 5.86169 10.7261 5.91677 10.5999C5.97186 10.4737 6.05241 10.3602 6.15338 10.2666L10.82 5.9333C10.9163 5.84399 11.0293 5.77452 11.1524 5.72887C11.2756 5.68321 11.4065 5.66226 11.5378 5.66722C11.669 5.67217 11.798 5.70293 11.9173 5.75773C12.0367 5.81254 12.1441 5.89032 12.2334 5.98663ZM16.82 7.39996C16.7237 7.31066 16.646 7.20327 16.5912 7.08392C16.5364 6.96456 16.5056 6.83558 16.5007 6.70434C16.4957 6.5731 16.5167 6.44217 16.5623 6.31903C16.608 6.19588 16.6774 6.08293 16.7667 5.98663C16.856 5.89033 16.9634 5.81256 17.0828 5.75776C17.2021 5.70296 17.3311 5.6722 17.4623 5.66725C17.5936 5.6623 17.7245 5.68325 17.8477 5.72889C17.9708 5.77454 18.0837 5.844 18.18 5.9333L22.8467 10.2666C22.9477 10.3602 23.0282 10.4737 23.0833 10.5999C23.1384 10.7261 23.1668 10.8623 23.1668 11C23.1668 11.1377 23.1384 11.2739 23.0833 11.4C23.0282 11.5262 22.9477 11.6397 22.8467 11.7333L18.18 16.0666C18.0837 16.1559 17.9708 16.2254 17.8477 16.271C17.7245 16.3167 17.5936 16.3376 17.4623 16.3327C17.3311 16.3277 17.2021 16.297 17.0828 16.2422C16.9634 16.1874 16.856 16.1096 16.7667 16.0133C16.6774 15.917 16.608 15.804 16.5623 15.6809C16.5167 15.5578 16.4957 15.4268 16.5007 15.2956C16.5056 15.1643 16.5364 15.0354 16.5912 14.916C16.646 14.7967 16.7237 14.6893 16.82 14.6L20.6974 11L16.82 7.39996Z" fill="#272EFF"/>
<path d="M0.5 2.66683C0.5 1.37883 1.54533 0.333496 2.83333 0.333496H26.1667C27.4547 0.333496 28.5 1.37883 28.5 2.66683V19.3335C28.5 19.9523 28.2542 20.5458 27.8166 20.9834C27.379 21.421 26.7855 21.6668 26.1667 21.6668H13.2467L8.48267 26.4308C8.21074 26.7017 7.86469 26.8861 7.48816 26.9606C7.11162 27.0351 6.72145 26.9965 6.36682 26.8497C6.01219 26.7028 5.70897 26.4542 5.49539 26.1353C5.28182 25.8164 5.16743 25.4413 5.16667 25.0575V21.6668H2.83333C2.21449 21.6668 1.621 21.421 1.18342 20.9834C0.745833 20.5458 0.5 19.9523 0.5 19.3335V2.66683ZM2.83333 2.3335C2.74493 2.3335 2.66014 2.36861 2.59763 2.43113C2.53512 2.49364 2.5 2.57842 2.5 2.66683V19.3335C2.5 19.5175 2.64933 19.6668 2.83333 19.6668H6.16667C6.43188 19.6668 6.68624 19.7722 6.87377 19.9597C7.06131 20.1473 7.16667 20.4016 7.16667 20.6668V24.9202L12.1267 19.9602C12.314 19.7726 12.5682 19.6671 12.8333 19.6668H26.1667C26.2551 19.6668 26.3399 19.6317 26.4024 19.5692C26.4649 19.5067 26.5 19.4219 26.5 19.3335V2.66683C26.5 2.57842 26.4649 2.49364 26.4024 2.43113C26.3399 2.36861 26.2551 2.3335 26.1667 2.3335H2.83333Z" fill="#272EFF"/>
</svg>

