<svg width="169" height="24" viewBox="0 0 169 24" fill="none" xmlns="http://www.w3.org/2000/svg">
<g clip-path="url(#clip0_2329_2196)">
<path d="M0.246094 12.0551C0.246094 5.55605 5.55873 0.336233 12.2013 0.336233C14.1986 0.322234 16.1679 0.805408 17.9319 1.74221C19.6959 2.67901 21.199 4.04 22.3059 5.70253L17.3254 8.59163C16.7491 7.76812 15.9821 7.09633 15.0898 6.63364C14.1975 6.17095 13.2065 5.9311 12.2013 5.93459C8.78576 5.93459 5.98658 8.78163 5.98658 12.0551C5.98658 15.3285 8.78576 18.1756 12.2013 18.1756C13.2539 18.1824 14.2906 17.9194 15.2125 17.4115C16.1344 16.9037 16.9108 16.1681 17.4676 15.2748L22.3988 18.2162C21.3054 19.9273 19.7966 21.3338 18.013 22.3046C16.2294 23.2754 14.2291 23.7789 12.1984 23.7681C5.55873 23.7739 0.246094 18.454 0.246094 12.0551Z" fill="#2668B8"/>
<path d="M23.4155 12.0553C23.4155 5.60264 28.7282 0.384277 35.3708 0.384277C42.0598 0.384277 47.3739 5.60554 47.3739 12.0553C47.3739 18.46 42.0598 23.7741 35.3708 23.7741C28.7282 23.7741 23.4155 18.4542 23.4155 12.0553ZM41.6334 12.0553C41.6334 8.82967 38.8342 5.98263 35.3708 5.98263C31.9552 5.98263 29.156 8.82967 29.156 12.0553C29.156 15.3287 31.9552 18.1757 35.3708 18.1757C38.84 18.1757 41.6334 15.3287 41.6334 12.0553Z" fill="#0056D2"/>
<path d="M143.974 12.2452C143.974 5.17624 149.715 0.384277 154.934 0.384277C158.492 0.384277 160.533 1.47494 161.908 3.56345L162.455 0.80778H167.79V23.3462H162.455L161.766 21.0257C160.201 22.7342 158.254 23.7813 154.934 23.7813C149.81 23.7741 143.974 19.2664 143.974 12.2452ZM162.192 12.1974C162.186 10.5434 161.522 8.9596 160.348 7.79452C159.174 6.62943 157.586 5.97846 155.932 5.98481C154.278 5.99115 152.694 6.6543 151.529 7.82836C150.364 9.00242 149.713 10.5912 149.719 12.2452C149.719 15.3766 152.518 18.1757 155.935 18.1757C159.394 18.1757 162.192 15.3766 162.192 12.1974Z" fill="#0056D2"/>
<path d="M137.417 3.41969V0.80906H131.583V23.3461H137.417V11.2023C137.417 7.54884 139.222 5.65178 142.348 5.65178C142.556 5.65178 142.753 5.66629 142.946 5.68514L144.028 0.244873C140.987 0.260827 138.782 1.30363 137.417 3.41969Z" fill="#0056D2"/>
<path d="M78.784 3.42123V0.810596L72.9492 0.823649L72.9985 23.3578L78.8333 23.3447L78.8014 11.2024C78.7927 7.55038 80.5926 5.64897 83.7224 5.64172C83.9221 5.6423 84.1215 5.65343 84.32 5.67507L85.3961 0.229004C82.3504 0.25366 80.143 1.30081 78.784 3.42123Z" fill="#0056D2"/>
<path d="M49.3955 14.6164V0.810547H55.2288V13.9058C55.2288 16.7992 56.8416 18.5077 59.6408 18.5077C62.7721 18.5077 64.572 16.6092 64.572 12.9558V0.810547H70.4082V23.3461H64.5763V20.7355C63.2014 22.8704 60.9708 23.9146 57.8873 23.9146C52.669 23.9161 49.3955 20.1205 49.3955 14.6164Z" fill="#0056D2"/>
<path d="M106.212 12.0811C106.225 5.77066 110.741 0.371004 117.905 0.384057C124.547 0.39711 129.233 5.71845 129.217 11.9869C129.219 12.6066 129.17 13.2255 129.072 13.8375L111.899 13.8056C112.557 16.5105 114.784 18.4598 118.153 18.467C120.192 18.467 122.376 17.7158 123.708 16.0101L127.687 19.2009C125.641 22.0915 122.031 23.7927 118.19 23.7855C111.41 23.7623 106.2 18.6759 106.212 12.0811ZM123.343 9.74027C123.016 7.46322 120.647 5.70249 117.848 5.69814C115.143 5.69814 112.959 7.30223 112.1 9.71997L123.343 9.74027Z" fill="#0056D2"/>
<path d="M85.4312 18.4337L90.6176 15.7186C91.4748 17.5765 93.1891 18.6715 95.6184 18.6715C97.8563 18.6715 98.7135 17.958 98.7135 16.9572C98.7135 13.3313 86.4275 15.5286 86.4275 7.23987C86.4275 2.66837 90.4276 0.240479 95.3791 0.240479C99.1413 0.240479 102.474 1.90693 104.284 5.00198L99.1442 7.72139C98.3828 6.19707 96.9542 5.33991 95.1442 5.33991C93.3834 5.33991 92.5248 5.95921 92.5248 7.00637C92.5248 10.5307 104.811 8.29283 104.811 16.7237C104.811 21.1052 101.24 23.771 95.4777 23.771C90.5726 23.7666 87.144 22.148 85.4312 18.4337Z" fill="#0056D2"/>
<path d="M0.246094 12.0551C0.246094 5.55605 5.55873 0.336233 12.2013 0.336233C14.1986 0.322234 16.1679 0.805408 17.9319 1.74221C19.6959 2.67901 21.199 4.04 22.3059 5.70253L17.3254 8.59163C16.7491 7.76812 15.9821 7.09633 15.0898 6.63364C14.1975 6.17095 13.2065 5.9311 12.2013 5.93459C8.78576 5.93459 5.98658 8.78163 5.98658 12.0551C5.98658 15.3285 8.78576 18.1756 12.2013 18.1756C13.2539 18.1824 14.2906 17.9194 15.2125 17.4115C16.1344 16.9037 16.9108 16.1681 17.4676 15.2748L22.3988 18.2162C21.3054 19.9273 19.7966 21.3338 18.013 22.3046C16.2294 23.2754 14.2291 23.7789 12.1984 23.7681C5.55873 23.7739 0.246094 18.454 0.246094 12.0551Z" fill="#0056D2"/>
</g>
<defs>
<clipPath id="clip0_2329_2196">
<rect width="168" height="24" fill="white" transform="translate(0.0183105)"/>
</clipPath>
</defs>
</svg>
