<svg width="86" height="78" viewBox="0 0 86 78" fill="none" xmlns="http://www.w3.org/2000/svg">
<circle cx="3" cy="3" r="3" fill="#D9D9D9"/>
<circle cx="3" cy="21" r="3" fill="#D9D9D9"/>
<circle cx="3" cy="39" r="3" fill="#D9D9D9"/>
<circle cx="3" cy="57" r="3" fill="#D9D9D9"/>
<circle cx="3" cy="75" r="3" fill="#D9D9D9"/>
<circle cx="23" cy="3" r="3" fill="#D9D9D9"/>
<circle cx="23" cy="21" r="3" fill="#D9D9D9"/>
<circle cx="23" cy="39" r="3" fill="#D9D9D9"/>
<circle cx="23" cy="57" r="3" fill="#D9D9D9"/>
<circle cx="23" cy="75" r="3" fill="#D9D9D9"/>
<circle cx="43" cy="3" r="3" fill="#D9D9D9"/>
<circle cx="43" cy="21" r="3" fill="#D9D9D9"/>
<circle cx="43" cy="39" r="3" fill="#D9D9D9"/>
<circle cx="43" cy="57" r="3" fill="#D9D9D9"/>
<circle cx="43" cy="75" r="3" fill="#D9D9D9"/>
<circle cx="63" cy="3" r="3" fill="#D9D9D9"/>
<circle cx="63" cy="21" r="3" fill="#D9D9D9"/>
<circle cx="63" cy="39" r="3" fill="#D9D9D9"/>
<circle cx="63" cy="57" r="3" fill="#D9D9D9"/>
<circle cx="63" cy="75" r="3" fill="#D9D9D9"/>
<circle cx="83" cy="3" r="3" fill="#D9D9D9"/>
<circle cx="83" cy="21" r="3" fill="#D9D9D9"/>
<circle cx="83" cy="39" r="3" fill="#D9D9D9"/>
<circle cx="83" cy="57" r="3" fill="#D9D9D9"/>
<circle cx="83" cy="75" r="3" fill="#D9D9D9"/>
</svg>
