<svg width="128" height="40" viewBox="0 0 128 40" fill="none" xmlns="http://www.w3.org/2000/svg">
<g clip-path="url(#clip0_2329_2181)">
<path d="M16.117 14.2727V18.5455H26.4284C26.1546 20.9091 25.3334 22.7273 24.0558 23.9091C22.5958 25.3636 20.2233 27 16.117 27C9.82076 27 4.89322 21.9091 4.89322 15.6364C4.89322 9.36364 9.7295 4.27273 16.117 4.27273C19.4933 4.27273 22.0483 5.63636 23.8733 7.36364L26.8846 4.36364C24.3296 1.90909 20.8621 0 16.117 0C7.44824 0 0.148193 7 0.148193 15.6364C0.148193 24.2727 7.44824 31.2727 16.117 31.2727C20.7708 31.2727 24.3296 29.7273 27.0671 26.9091C29.8959 24.0909 30.8084 20.0909 30.8084 16.9091C30.8084 15.9091 30.7171 15 30.6259 14.2727H16.117Z" fill="#4285F4"/>
<path d="M43.5833 10.7273C38.0171 10.7273 33.3633 15 33.3633 20.8182C33.3633 26.6364 37.9258 30.9091 43.5833 30.9091C49.2409 30.9091 53.8034 26.7273 53.8034 20.9091C53.8034 15 49.2409 10.7273 43.5833 10.7273ZM43.5833 27C40.4808 27 37.8346 24.4546 37.8346 20.9091C37.8346 17.2727 40.4808 14.8182 43.5833 14.8182C46.6859 14.8182 49.3321 17.2727 49.3321 20.9091C49.3321 24.4546 46.6859 27 43.5833 27Z" fill="#EA4335"/>
<path d="M93.4978 13H93.3152C92.3115 11.8182 90.3952 10.7273 87.9315 10.7273C82.8214 10.7273 78.4414 15.0909 78.4414 20.8182C78.4414 26.4546 82.8214 30.9091 87.9315 30.9091C90.3952 30.9091 92.3115 29.8182 93.3152 28.6364H93.4978V30.0909C93.4978 33.9091 91.399 36 88.114 36C85.3764 36 83.7339 34.0909 83.0039 32.3637L79.1714 34C80.2664 36.6364 83.2777 40 88.2052 40C93.4065 40 97.8778 36.9091 97.8778 29.4546V11.2727H93.6803V13H93.4978ZM88.3877 27C85.2852 27 83.0039 24.3637 83.0039 20.9091C83.0039 17.3637 85.3764 14.8182 88.3877 14.8182C91.399 14.8182 93.7715 17.4546 93.7715 21C93.8628 24.4546 91.4902 27 88.3877 27Z" fill="#4285F4"/>
<path d="M66.3048 10.7273C60.7385 10.7273 56.0847 15 56.0847 20.8182C56.0847 26.6364 60.6472 30.9091 66.3048 30.9091C71.9623 30.9091 76.5248 26.7273 76.5248 20.9091C76.5248 15 71.9623 10.7273 66.3048 10.7273ZM66.3048 27C63.2023 27 60.556 24.4546 60.556 20.9091C60.556 17.2727 63.2023 14.8182 66.3048 14.8182C69.4073 14.8182 72.0536 17.2727 72.0536 20.9091C72.0536 24.4546 69.4073 27 66.3048 27Z" fill="#FBBC05"/>
<path d="M101.254 0.45459H105.634V31H101.254V0.45459Z" fill="#34A853"/>
<path d="M119.139 27C116.858 27 115.307 26 114.212 23.9091L127.808 18.3637L127.352 17.1818C126.531 14.9091 123.884 10.7273 118.683 10.7273C113.482 10.7273 109.102 14.8182 109.102 20.8182C109.102 26.4546 113.391 30.9091 119.139 30.9091C123.793 30.9091 126.439 28.0909 127.626 26.4546L124.158 24.1818C122.972 25.9091 121.421 27 119.139 27ZM118.866 14.5455C120.691 14.5455 122.242 15.4546 122.698 16.7273L113.573 20.5455C113.482 16.3637 116.584 14.5455 118.866 14.5455Z" fill="#EA4335"/>
</g>
<defs>
<clipPath id="clip0_2329_2181">
<rect width="127.66" height="40" fill="white" transform="translate(0.148193)"/>
</clipPath>
</defs>
</svg>
