<svg width="149" height="40" viewBox="0 0 149 40" fill="none" xmlns="http://www.w3.org/2000/svg">
<g clip-path="url(#clip0_2329_2178)">
<path d="M140.231 19.0455L148.148 40C145.828 39.6818 143.462 39.2273 141.096 38.8636L136.637 27.2727L132.041 37.9091C129.812 37.5455 127.582 37.4091 125.307 37.1364L133.361 18.8182L126.081 0H132.86L136.955 10.5L141.323 0H148.148L140.231 19.0455ZM120.757 0H114.615V36.3182C116.617 36.4545 118.71 36.5455 120.757 36.7727V0ZM109.337 35.9091C103.74 35.5455 98.1436 35.1818 92.4561 35.0909V0H98.6896V29.1818C102.284 29.2727 105.879 29.5455 109.337 29.7273V35.9091ZM85.7676 14.2273V20.4545H77.2136V34.6818H71.0256V0H88.5431V6.22727H77.2136V14.1818H85.7676V14.2273ZM60.5151 6.22727V35C58.4221 35 56.2836 35 54.2361 35.0909V6.22727H47.7751V0H67.0216V6.22727H60.5151ZM41.041 20.7727C38.311 20.7727 35.035 20.7727 32.7145 20.9091V30.1818C36.4 29.9091 40.04 29.6364 43.771 29.5V35.5L26.481 36.8636V0H43.771V6.22727H32.7145V14.6364C35.126 14.6364 38.857 14.5 41.041 14.5V20.7727ZM6.37001 17.2727V39.0909C4.1405 39.3636 2.1385 39.6818 0 40V0H5.96051L14.105 22.7273V0H20.384V37.4091C18.1545 37.7727 15.925 37.9091 13.559 38.2273L6.37001 17.2727Z" fill="#E50914"/>
</g>
<defs>
<clipPath id="clip0_2329_2178">
<rect width="148.148" height="40" fill="white"/>
</clipPath>
</defs>
</svg>
