<svg width="50" height="51" viewBox="0 0 50 51" fill="none" xmlns="http://www.w3.org/2000/svg">
<path d="M25 42.4595C15.6 42.4595 8 34.8595 8 25.4595C8 16.0595 15.6 8.45947 25 8.45947C34.4 8.45947 42 16.0595 42 25.4595C42 34.8595 34.4 42.4595 25 42.4595ZM25 10.4595C16.7 10.4595 10 17.1595 10 25.4595C10 33.7595 16.7 40.4595 25 40.4595C33.3 40.4595 40 33.7595 40 25.4595C40 17.1595 33.3 10.4595 25 10.4595Z" fill="#ffffff"/>
<path d="M20 34.1595V16.7595L35 25.4595L20 34.1595ZM22 20.1595V30.6595L31 25.3595L22 20.1595Z" fill="#ffffff"/>
</svg>
