<svg width="33" height="32" viewBox="0 0 33 32" fill="none" xmlns="http://www.w3.org/2000/svg">
<path d="M16.5 4.8002C15.8634 4.8002 15.253 5.05305 14.8029 5.50314C14.3528 5.95323 14.1 6.56368 14.1 7.2002C14.1 7.83671 14.3528 8.44716 14.8029 8.89725C15.253 9.34734 15.8634 9.6002 16.5 9.6002C17.1365 9.6002 17.7469 9.34734 18.197 8.89725C18.6471 8.44716 18.9 7.83671 18.9 7.2002C18.9 6.56368 18.6471 5.95323 18.197 5.50314C17.7469 5.05305 17.1365 4.8002 16.5 4.8002ZM12.5 7.2002C12.5 6.13933 12.9214 5.12191 13.6715 4.37177C14.4217 3.62162 15.4391 3.2002 16.5 3.2002C17.5608 3.2002 18.5782 3.62162 19.3284 4.37177C20.0785 5.12191 20.5 6.13933 20.5 7.2002C20.5 8.26106 20.0785 9.27848 19.3284 10.0286C18.5782 10.7788 17.5608 11.2002 16.5 11.2002C15.4391 11.2002 14.4217 10.7788 13.6715 10.0286C12.9214 9.27848 12.5 8.26106 12.5 7.2002ZM25.3 6.4002C24.8756 6.4002 24.4686 6.56877 24.1686 6.86882C23.8685 7.16888 23.7 7.57585 23.7 8.0002C23.7 8.42454 23.8685 8.83151 24.1686 9.13157C24.4686 9.43162 24.8756 9.6002 25.3 9.6002C25.7243 9.6002 26.1313 9.43162 26.4313 9.13157C26.7314 8.83151 26.9 8.42454 26.9 8.0002C26.9 7.57585 26.7314 7.16888 26.4313 6.86882C26.1313 6.56877 25.7243 6.4002 25.3 6.4002ZM22.1 8.0002C22.1 7.1515 22.4371 6.33757 23.0372 5.73745C23.6373 5.13734 24.4513 4.8002 25.3 4.8002C26.1486 4.8002 26.9626 5.13734 27.5627 5.73745C28.1628 6.33757 28.5 7.1515 28.5 8.0002C28.5 8.84889 28.1628 9.66282 27.5627 10.2629C26.9626 10.8631 26.1486 11.2002 25.3 11.2002C24.4513 11.2002 23.6373 10.8631 23.0372 10.2629C22.4371 9.66282 22.1 8.84889 22.1 8.0002ZM6.09995 8.0002C6.09995 7.57585 6.26852 7.16888 6.56858 6.86882C6.86864 6.56877 7.2756 6.4002 7.69995 6.4002C8.1243 6.4002 8.53126 6.56877 8.83132 6.86882C9.13138 7.16888 9.29995 7.57585 9.29995 8.0002C9.29995 8.42454 9.13138 8.83151 8.83132 9.13157C8.53126 9.43162 8.1243 9.6002 7.69995 9.6002C7.2756 9.6002 6.86864 9.43162 6.56858 9.13157C6.26852 8.83151 6.09995 8.42454 6.09995 8.0002ZM7.69995 4.8002C6.85126 4.8002 6.03733 5.13734 5.43721 5.73745C4.83709 6.33757 4.49995 7.1515 4.49995 8.0002C4.49995 8.84889 4.83709 9.66282 5.43721 10.2629C6.03733 10.8631 6.85126 11.2002 7.69995 11.2002C8.54864 11.2002 9.36258 10.8631 9.96269 10.2629C10.5628 9.66282 10.9 8.84889 10.9 8.0002C10.9 7.1515 10.5628 6.33757 9.96269 5.73745C9.36258 5.13734 8.54864 4.8002 7.69995 4.8002ZM8.65995 23.997L8.49995 24.0002C7.65126 24.0002 6.83733 23.6631 6.23721 23.0629C5.63709 22.4628 5.29995 21.6489 5.29995 20.8002V14.8002C5.29995 14.6941 5.34209 14.5924 5.41711 14.5174C5.49212 14.4423 5.59386 14.4002 5.69995 14.4002H8.52235C8.58635 13.813 8.79435 13.2674 9.10635 12.8002H5.69995C4.59595 12.8002 3.69995 13.6962 3.69995 14.8002V20.8002C3.69988 21.4852 3.84641 22.1623 4.12971 22.7859C4.41301 23.4096 4.82652 23.9654 5.34244 24.416C5.85836 24.8666 6.46475 25.2015 7.12086 25.3983C7.77697 25.5951 8.4676 25.6492 9.14635 25.557C8.9314 25.055 8.76841 24.5322 8.65995 23.997ZM23.8536 25.557C24.0648 25.5858 24.2802 25.6002 24.5 25.6002C25.773 25.6002 26.9939 25.0945 27.8941 24.1943C28.7942 23.2941 29.3 22.0732 29.3 20.8002V14.8002C29.3 13.6962 28.404 12.8002 27.3 12.8002H23.8936C24.2072 13.2674 24.4136 13.813 24.4776 14.4002H27.3C27.406 14.4002 27.5078 14.4423 27.5828 14.5174C27.6578 14.5924 27.7 14.6941 27.7 14.8002V20.8002C27.7001 21.234 27.612 21.6632 27.4411 22.0619C27.2701 22.4606 27.0199 22.8203 26.7057 23.1193C26.3914 23.4183 26.0197 23.6503 25.613 23.8012C25.2063 23.9521 24.7732 24.0187 24.34 23.997C24.2315 24.5322 24.0685 25.055 23.8536 25.557ZM12.1 12.8002C10.996 12.8002 10.1 13.6962 10.1 14.8002V22.4002C10.1 24.0976 10.7742 25.7254 11.9745 26.9257C13.1747 28.1259 14.8026 28.8002 16.5 28.8002C18.1973 28.8002 19.8252 28.1259 21.0254 26.9257C22.2257 25.7254 22.9 24.0976 22.9 22.4002V14.8002C22.9 13.6962 22.004 12.8002 20.9 12.8002H12.1ZM11.7 14.8002C11.7 14.6941 11.7421 14.5924 11.8171 14.5174C11.8921 14.4423 11.9939 14.4002 12.1 14.4002H20.9C21.006 14.4002 21.1078 14.4423 21.1828 14.5174C21.2578 14.5924 21.3 14.6941 21.3 14.8002V22.4002C21.3 23.6732 20.7942 24.8941 19.8941 25.7943C18.9939 26.6945 17.773 27.2002 16.5 27.2002C15.2269 27.2002 14.006 26.6945 13.1058 25.7943C12.2057 24.8941 11.7 23.6732 11.7 22.4002V14.8002Z" fill="#D24AFF"/>
</svg>
