<svg width="188" height="32" viewBox="0 0 188 32" fill="none" xmlns="http://www.w3.org/2000/svg">
<path fill-rule="evenodd" clip-rule="evenodd" d="M61.4581 18.3885C61.4581 21.105 59.2335 23.0901 56.1615 23.0901C53.0895 23.0901 50.865 21.105 50.865 18.3885V8.3584H48.7463V18.493C48.7463 22.0453 51.8183 25.0752 56.1615 25.0752C60.5047 25.0752 63.5767 21.9408 63.5767 18.493V8.3584H61.4581V18.3885ZM78.8308 8.3584H73.1105V25.0752H78.8308C83.5977 25.0752 86.8816 21.8363 86.8816 16.7168C86.8816 11.7018 83.5977 8.3584 78.8308 8.3584ZM78.6189 22.9856H75.2291V10.448H78.6189C82.2206 10.448 84.7629 12.851 84.7629 16.7168C84.7629 20.896 82.1147 22.8811 78.6189 22.9856ZM125.017 23.299C121.203 23.299 118.661 20.4781 118.661 16.7168C118.661 12.9555 121.309 10.239 125.017 10.239C127.983 10.239 129.784 11.9107 129.784 11.9107L130.631 10.448C130.631 10.448 128.724 8.46288 124.805 8.46288C119.72 8.46288 116.542 12.2242 116.542 16.7168C116.542 21.3139 119.826 25.1797 125.017 25.1797C129.042 25.1797 131.055 22.4632 131.055 22.4632L129.89 21.2094C129.784 21.105 128.195 23.299 125.017 23.299ZM140.906 8.3584H143.025V25.0752H140.906V8.3584ZM152.559 10.448H157.855V25.0752H159.974V10.448H165.271V8.3584H152.559M185.186 8.3584L180.101 15.9854L174.91 8.3584H172.686L179.042 17.6571V25.0752H181.16V17.6571L187.41 8.35841M100.547 8.35841L93.9789 25.0752H96.0976L97.8984 20.2691L104.784 18.8064L107.114 25.0752H109.233L102.771 8.3584L100.547 8.35841ZM98.534 18.284L101.712 10.5525H101.818L104.466 17.1347L98.534 18.284Z" fill="#2E3D49"/>
<path fill-rule="evenodd" clip-rule="evenodd" d="M30.9517 0.533333L32.0183 1.06667V14.9333C32.0183 20.8553 28.936 24.2087 25.6234 25.7065L25.6284 25.7067L17.4993 30.3878C17.4366 30.4247 17.3737 30.4609 17.3106 30.4965L17.2184 30.5496L17.2203 30.5469C15.4667 31.5156 13.5487 32 11.7517 32C6.41832 32 0.0183105 27.7333 0.0183105 19.2V6.4L2.15165 7.46667V19.2C2.15165 27.7333 8.55165 29.8667 11.7517 29.8667C13.7343 29.8667 16.9453 29.0478 19.1015 26.3952C15.1455 25.4641 10.685 22.0573 10.685 14.9333V2.34667L2.15165 7.46667L0.0183105 6.4L10.685 0L11.7517 0.533333L12.8183 1.06667V14.9333C12.8183 22.336 17.6346 24.1196 20.3037 24.4623C20.9525 23.063 21.3517 21.3311 21.3517 19.2V5.33333L23.485 6.4V19.2C23.485 21.1762 23.1418 22.9235 22.548 24.442C25.2431 24.0525 29.885 22.2007 29.885 14.9333V2.4L23.485 6.4L21.3517 5.33333L29.885 0L30.9517 0.533333Z" fill="#02B3E4"/>
</svg>
