<svg width="136" height="50" viewBox="0 0 136 50" fill="none" xmlns="http://www.w3.org/2000/svg">
<g clip-path="url(#clip0_2329_2189)">
<path d="M21.6568 11.93L11.2314 5.965L0.807617 11.93V5.965L11.2331 0L21.6585 5.965V11.93H21.6568Z" fill="#A435F0"/>
<path d="M0.807861 16.9385H6.26864V30.0868C6.26864 33.4851 8.82833 35.1401 11.2333 35.1401C13.6568 35.1401 16.198 33.4401 16.198 30.0418V16.9385H21.6588V30.4001C21.6588 33.5301 20.6664 35.9451 18.6802 37.6001C16.694 39.2551 14.2118 40.0601 11.1879 40.0601C8.16402 40.0601 5.6817 39.2551 3.74091 37.6001C1.80012 35.9451 0.807861 33.6201 0.807861 30.5335V16.9385Z" fill="black"/>
<path d="M68.87 33.2801C67.2169 34.7383 65.3332 35.4533 63.1856 35.4533C59.2703 35.4533 56.6418 33.2416 56.3457 29.8166H73.9911C73.9911 29.8166 74.1071 28.7101 74.1071 27.6716C74.1071 24.4516 73.0695 21.7683 70.9487 19.5766C68.8735 17.3851 66.1657 16.3118 62.8711 16.3118C59.3965 16.3118 56.5525 17.3851 54.2956 19.5766C52.0841 21.7683 50.9556 24.6301 50.9556 28.2083V28.3866C50.9556 31.9201 52.0841 34.7366 54.2956 36.8401C56.5071 38.9416 59.4402 40.0151 63.0056 40.0151C67.1512 40.0151 70.451 38.3951 72.9265 35.6001L68.87 33.2801ZM58.4918 22.3051C59.7093 21.3651 61.1994 20.8733 62.8694 20.8733C64.4486 20.8733 65.757 21.3651 66.8856 22.3501C67.9636 23.2466 68.5454 24.3483 68.596 25.6151H56.4836C56.6586 24.3066 57.3262 23.2033 58.4918 22.3051Z" fill="black"/>
<path d="M123.843 43.0535C121.624 48.2368 119.307 50.0001 115.753 50.0001C115.144 50.0001 113.291 50.0001 113.291 50.0001V45.2035C113.291 45.2035 114.06 45.2035 115.282 45.2035C116.505 45.2035 117.642 44.7485 118.725 42.2701C119.808 39.7918 119.808 39.7918 119.808 39.7918L110.466 16.9385H116.017L122.652 33.3968L129.467 16.9385H135.018C135.018 16.9385 126.125 37.7185 123.843 43.0535Z" fill="black"/>
<path d="M42.9184 8.30664V18.9799C41.1289 17.3899 38.3455 16.4449 35.653 16.4449C32.4492 16.4449 29.7416 17.5633 27.53 19.8433C25.3638 22.0799 24.2808 24.8516 24.2808 28.2066C24.2808 31.5616 25.3638 34.3333 27.53 36.6149C29.7416 38.8516 32.4492 39.9699 35.653 39.9699C39.3496 39.9699 41.6839 38.5316 42.9184 37.4033V39.4783H48.3337V8.30664H42.9184ZM41.2938 33.1283C39.9852 34.4249 38.3152 35.0966 36.3744 35.0966C34.4337 35.0966 32.8544 34.4249 31.546 33.1283C30.283 31.8316 29.6506 30.1766 29.6506 28.2083C29.6506 26.2399 30.283 24.5849 31.546 23.2883C32.8544 21.9916 34.4337 21.3199 36.3744 21.3199C38.3152 21.3199 39.9852 21.9916 41.2938 23.2883C42.6476 24.5849 43.3254 26.2399 43.3254 28.2083C43.3254 30.1766 42.6476 31.8316 41.2938 33.1283Z" fill="black"/>
<path d="M102.047 16.4917C97.9331 16.4917 95.7939 18.1834 94.329 19.8117C93.7437 18.705 92.0939 16.4917 88.2376 16.4917C84.9799 16.4917 83.0577 18.1234 82.1007 19.2867V16.94H76.7307V39.48H82.1007V26.51C82.1007 23.4684 83.9961 21.2767 86.5239 21.2767C89.0969 21.2767 90.5853 23.2 90.5853 26.285V39.4784H95.9553V26.5084C95.9553 23.4217 97.8053 21.275 100.468 21.275C103.041 21.275 104.529 23.1984 104.529 26.2834V39.4767H109.945V25.5234C109.945 19.6467 106.757 16.4917 102.047 16.4917Z" fill="black"/>
</g>
<defs>
<clipPath id="clip0_2329_2189">
<rect width="134.211" height="50" fill="white" transform="translate(0.807617)"/>
</clipPath>
</defs>
</svg>
